<?xml version="1.0" standalone="no"?>
<!DOCTYPE svg PUBLIC "-//W3C//DTD SVG 1.1//EN" "http://www.w3.org/Graphics/SVG/1.1/DTD/svg11.dtd" >
<svg xmlns="http://www.w3.org/2000/svg" xmlns:xlink="http://www.w3.org/1999/xlink" version="1.1">
<metadata></metadata>
<defs>
<font id="munkeyshineregular" horiz-adv-x="1300" >
<font-face units-per-em="2048" ascent="1638" descent="-410" />
<missing-glyph horiz-adv-x="923" />
<glyph horiz-adv-x="0" />
<glyph unicode="&#xd;" horiz-adv-x="923" />
<glyph unicode=" "  horiz-adv-x="923" />
<glyph unicode="&#x09;" horiz-adv-x="923" />
<glyph unicode="&#xa0;" horiz-adv-x="923" />
<glyph unicode="!" horiz-adv-x="466" d="M158 156q0 66 45 110.5t110 44.5q66 0 111 -44.5t45 -110.5t-45 -111t-111 -45q-63 0 -109 46t-46 110zM162 397v918h307v-918h-307z" />
<glyph unicode="&#x22;" horiz-adv-x="878" d="M162 807v508h307v-508h-307zM571 807v508h308v-508h-308z" />
<glyph unicode="#" horiz-adv-x="1083" d="M143 293v307h203v123h-203v307h203v285h307v-285h123v285h307v-1307h-307v285h-123v-285h-307v285h-203zM653 600h123v123h-123v-123z" />
<glyph unicode="$" horiz-adv-x="966" d="M156 170v307h491v27l-172 -2q-133 -2 -226 92t-93 229q0 133 93 226.5t226 93.5h133q-63 0 -109 46t-46 109q0 66 45 111t110 45q66 0 111 -45t45 -111t-45 -110.5t-111 -44.5h359v-307h-492v-27l172 2q133 2 226.5 -92t93.5 -230q0 -133 -93.5 -226t-226.5 -93h-133 q63 0 109.5 -46.5t46.5 -109.5q0 -66 -45 -110.5t-111 -44.5t-112 45t-46 110q0 66 46.5 111t111.5 45h-358z" />
<glyph unicode="%" horiz-adv-x="923" d="M158 1159q0 66 45 111t110 45q66 0 111 -45t45 -111t-45 -110.5t-111 -44.5q-63 0 -109 46t-46 109zM162 59l452 1299l291 -101l-454 -1300zM608 156q0 66 45 110.5t111 44.5t111 -44.5t45 -110.5q0 -63 -46.5 -109.5t-109.5 -46.5q-66 0 -111 45t-45 111z" />
<glyph unicode="&#x26;" horiz-adv-x="1243" d="M154 444q0 178 118 299q-53 90 -53 195q0 160 109.5 269.5t269.5 109.5t269.5 -109.5t109.5 -269.5v-154h-307v154q0 72 -72 72q-29 0 -50.5 -21.5t-21.5 -50.5q0 -31 25 -55l285 -285h208v-154q0 -25 -4 -51l240 -239l-217 -217l-172 172q-127 -109 -293 -109 q-188 0 -316 128t-128 316zM461 444q0 -57 40 -97t97 -40q39 1 74 21l-191 190q-20 -35 -20 -74z" />
<glyph unicode="'" horiz-adv-x="466" d="M162 807v508h307v-508h-307z" />
<glyph unicode="(" horiz-adv-x="1099" d="M135 657q0 274 178 447q145 139 435 229l90 -295q-195 -59 -271 -116q-125 -94 -125 -265q0 -170 125 -262q78 -58 271 -119l-90 -292l-148 45q-207 63 -336 237t-129 391z" />
<glyph unicode=")" horiz-adv-x="1099" d="M98 276l146 48q113 37 180.5 126t67.5 207q0 170 -123 265q-76 57 -271 116l90 295q291 -90 435 -229q176 -171 176 -447q0 -272 -178 -444q-145 -139 -433 -229z" />
<glyph unicode="*" horiz-adv-x="2336" d="M164 864q0 150 103.5 254.5t252.5 106.5q109 193 299.5 303t411.5 110t411.5 -110.5t301.5 -302.5q150 -2 253 -106.5t103 -254.5q0 -137 -87 -237.5t-224 -118.5q-94 -231 -300 -369.5t-458 -138.5q-250 0 -457 139.5t-301 368.5q-135 20 -222 120.5t-87 235.5zM307 864 q0 -96 72 -160.5t168 -54.5q35 -139 121 -254q43 57 96 105q-106 43 -107 157q0 72 50.5 122t121.5 50q72 0 121 -50t49 -122v-18q113 39 232 39q121 0 233 -39q-2 10 -2 18q0 72 50.5 122t121.5 50q72 0 122 -50t50 -122q0 -115 -106 -157q53 -47 96 -105q86 115 121 256 q96 -12 168 51.5t72 161.5q0 90 -63.5 153.5t-154.5 63.5q-25 0 -51 -6q-80 207 -257 328t-400 121q-221 0 -399.5 -122t-258.5 -327q-25 6 -49 6q-90 0 -153.5 -63.5t-63.5 -153.5zM406 864q0 49 33.5 84t80.5 35q13 0 25 -2q-18 -80 -19 -162q0 -37 4 -71 q-51 -2 -87.5 31.5t-36.5 84.5zM678 657q0 -68 70 -67q67 -1 67 67t-67 68q-70 0 -70 -68zM715 1087q0 86 84 87q37 0 61.5 -25t24.5 -62q0 -84 -86 -83q-35 0 -59.5 24.5t-24.5 58.5zM788 750q0 -27 27 -27t27 27q0 25 -27 24q-27 0 -27 -24zM836 1247q0 57 57 58 q57 -1 57 -58t-57 -57t-57 57zM844 309q172 -129 387 -129q217 0 387 129h-774zM926 1149q0 41 41 41t41 -41t-41 -41t-41 41zM1008 1346q0 41 41 40q41 1 41 -40t-41 -41t-41 41zM1024 498q0 -47 47 -47q45 0 45 47q0 45 -45 45q-47 0 -47 -45zM1346 498q0 -47 47 -47 q45 0 45 47q0 45 -45 45q-47 0 -47 -45zM1485 657q0 -68 67 -67q68 -1 68 67t-68 68t-67 -68zM1593 750q0 -27 27 -27t27 27q0 25 -27 24q-27 0 -27 -24zM1919 981q12 2 25 2q47 0 80.5 -35t33.5 -84q0 -51 -35.5 -85t-87.5 -31q2 35 2 71q0 82 -18 162z" />
<glyph unicode="+" horiz-adv-x="1075" d="M160 526v308h307v305h307v-305h305v-308h-305v-305h-307v305h-307z" />
<glyph unicode="," horiz-adv-x="466" d="M160 -188v507h307v-507h-307z" />
<glyph unicode="-" horiz-adv-x="466" d="M158 770q0 66 45 111t110 45q66 0 111 -45t45 -111t-45 -111t-111 -45q-63 0 -109 46.5t-46 109.5z" />
<glyph unicode="." horiz-adv-x="466" d="M158 156q0 66 45 110.5t110 44.5q66 0 111 -44.5t45 -110.5t-45 -111t-111 -45q-63 0 -109 46t-46 110z" />
<glyph unicode="/" horiz-adv-x="923" d="M162 59l452 1299l291 -101l-454 -1300z" />
<glyph unicode="0" horiz-adv-x="1452" d="M135 657q0 276 191.5 468t468.5 192q276 0 466.5 -192t190.5 -468t-190.5 -466.5t-466.5 -190.5t-468 190.5t-192 466.5zM442 657q0 -147 102.5 -248.5t250.5 -101.5q145 0 247.5 102.5t102.5 247.5q0 147 -101.5 250t-248.5 103q-145 0 -249 -103.5t-104 -249.5z" />
<glyph unicode="1" horiz-adv-x="677" d="M158 1010v307h366l154 -154v-1163h-307v1010h-213z" />
<glyph unicode="2" horiz-adv-x="1232" d="M158 154q0 170 198 286q25 14 371 164q199 86 199 174q0 96 -67.5 164t-164.5 68q-96 0 -162.5 -68t-66.5 -164v-153h-307v153q0 225 155.5 382t380.5 157q227 0 383 -156t156 -383q0 -178 -148 -309q-104 -92 -305 -176q141 14 297 14h154v-307h-920z" />
<glyph unicode="3" horiz-adv-x="1228" d="M158 0v307h665q41 0 71 30t30 71q0 39 -30 68.5t-69 29.5h-319v307h319q41 0 70 28.5t29 69.5t-29 70t-70 29h-667v307h667q172 0 289 -117t117 -289q0 -141 -88 -252q88 -110 88 -251q0 -172 -117 -290t-289 -118h-667z" />
<glyph unicode="4" horiz-adv-x="1228" d="M158 397v232l680 686l239 2l154 -154v-1163h-307v244h-613zM512 551h412v414z" />
<glyph unicode="5" horiz-adv-x="1228" d="M158 0v307h665q41 0 71 29t30 70t-30 70.5t-71 29.5l-260 -2q-170 -2 -287.5 116.5t-117.5 288.5v254l153 154h920v-307h-766v-101q0 -41 28.5 -69.5t69.5 -28.5l260 2q172 2 290 -116.5t118 -290.5t-118 -289t-290 -117h-665z" />
<glyph unicode="6" horiz-adv-x="1228" d="M158 406q0 141 88 251q-88 111 -88 252q0 172 116.5 290t288.5 118h668v-307h-668q-41 0 -69.5 -30t-28.5 -71q0 -86 88 -96h270q172 0 290 -117.5t118 -289.5t-118 -289t-290 -117h-260q-172 0 -288.5 116.5t-116.5 289.5zM465 406q0 -41 28.5 -70t69.5 -29h260 q41 0 71 29t30 70t-29 70.5t-70 29.5l-272 -2q-88 -10 -88 -98z" />
<glyph unicode="7" horiz-adv-x="1087" d="M158 1010v307h776l153 -154v-1163h-307v1010h-622z" />
<glyph unicode="8" horiz-adv-x="1236" d="M158 406q0 141 88 251q-88 111 -88 252q0 172 116.5 290t288.5 118h260q172 0 290 -117t118 -289q0 -141 -88 -252q88 -112 88 -253q0 -172 -118 -289t-290 -117h-260q-172 0 -288.5 116.5t-116.5 289.5zM465 406q0 -41 28.5 -70t69.5 -29h260q41 0 71 29t30 70t-29 70.5 t-70 29.5l-272 -2q-88 -10 -88 -98zM465 909q0 -86 86 -96h272q41 0 71 28.5t30 69.5t-30 70t-71 29h-260q-41 0 -69.5 -30t-28.5 -71z" />
<glyph unicode="9" horiz-adv-x="1230" d="M158 0v307h665q41 0 71 29t30 70q0 88 -88 98h-273q-172 0 -288.5 116.5t-116.5 288.5t116.5 290t288.5 118h260q172 0 290 -118t118 -290q0 -141 -88 -252q88 -110 88 -251q0 -172 -118 -289t-290 -117h-665zM465 909q0 -41 28.5 -69.5t69.5 -28.5l273 2q37 4 62.5 31.5 t25.5 64.5q0 41 -30 71t-71 30h-260q-41 0 -69.5 -30t-28.5 -71z" />
<glyph unicode=":" horiz-adv-x="466" d="M158 156q0 66 45 110.5t110 44.5q66 0 111 -44.5t45 -110.5t-45 -111t-111 -45q-63 0 -109 46t-46 110zM158 852q0 66 45 111t110 45q66 0 111 -45t45 -111t-45 -111t-111 -45q-63 0 -109 46t-46 110z" />
<glyph unicode=";" horiz-adv-x="466" d="M158 852q0 66 45 111t110 45q66 0 111 -45t45 -111t-45 -111t-111 -45q-63 0 -109 46t-46 110zM160 -188v507h307v-507h-307z" />
<glyph unicode="&#x3c;" horiz-adv-x="595" d="M160 457v434l215 215l217 -217l-215 -215l217 -217l-217 -217z" />
<glyph unicode="=" horiz-adv-x="1075" d="M160 219v307h919v-307h-919zM160 834v307h919v-307h-919z" />
<glyph unicode="&#x3e;" horiz-adv-x="595" d="M160 457l217 217l-217 215l217 217l217 -215v-434l-217 -217z" />
<glyph unicode="?" horiz-adv-x="1230" d="M158 156q0 66 45 110.5t110 44.5q66 0 111 -44.5t45 -110.5t-45 -111t-111 -45q-63 0 -109 46t-46 110zM158 375v31q0 170 117.5 289.5t287.5 117.5l260 -2q41 0 71 28.5t30 69.5t-30 71t-71 30h-665v307h665q172 0 290 -118t118 -290t-118 -289.5t-290 -115.5l-260 2 q-41 0 -69.5 -30t-28.5 -70v-31h-307z" />
<glyph unicode="@" horiz-adv-x="1452" d="M135 657q0 276 191.5 468t468.5 192q276 0 466.5 -192t190.5 -468t-190.5 -466.5t-466.5 -190.5t-468 190.5t-192 466.5zM489 313h185v129h233v-129h185v389q0 125 -88.5 213.5t-212.5 88.5q-125 0 -213.5 -88.5t-88.5 -213.5v-389zM674 627v75q0 49 33.5 83t83.5 34 q49 0 82.5 -33.5t33.5 -83.5v-75h-233z" />
<glyph unicode="A" d="M158 0v745q0 240 165.5 406t405.5 166t405.5 -166t165.5 -406v-745h-307v256h-528v-256h-307zM465 563h528v182q0 111 -76.5 188t-187.5 77q-109 0 -186.5 -78t-77.5 -187v-182z" />
<glyph unicode="B" horiz-adv-x="1232" d="M158 0v911q0 172 117.5 289t289.5 117h258q172 0 290 -117t118 -289q0 -141 -88 -252q88 -112 88 -253q0 -172 -118 -289t-290 -117h-665zM465 307h358q41 0 71 29t30 70t-28 70.5t-69 29.5h-4l-53 -2l-305 -2v-195zM465 813h360q41 0 70 28.5t29 69.5t-30 70t-71 29 h-258q-43 0 -71.5 -28t-28.5 -71v-98z" />
<glyph unicode="C" horiz-adv-x="1392" d="M135 657q0 276 191.5 468t468.5 192q195 0 342 -98q102 -68 256 -246l-232 -201q-109 127 -155 164q-94 74 -211 74q-145 0 -249 -103.5t-104 -249.5q0 -147 102.5 -248.5t250.5 -101.5q117 0 211 74q47 37 155 166l232 -201l-99 -117q-193 -229 -499 -229 q-276 0 -468 190.5t-192 466.5z" />
<glyph unicode="D" horiz-adv-x="1335" d="M158 0v1161l153 154l367 2h6q272 0 460 -191q190 -193 191 -469q0 -276 -190.5 -466.5t-466.5 -190.5h-520zM465 307h213q145 0 247.5 102.5t102.5 247.5q0 147 -101.5 250t-248.5 103h-213v-703z" />
<glyph unicode="E" horiz-adv-x="1230" d="M158 408q0 141 88 251q-88 111 -88 252q0 172 116.5 289t288.5 117h668v-307h-668q-41 0 -69.5 -29t-28.5 -70t28.5 -69.5t69.5 -28.5h668v-307h-668q-41 0 -69.5 -28.5t-28.5 -69.5t28.5 -71t69.5 -30h668v-307h-668q-172 0 -288.5 118t-116.5 290z" />
<glyph unicode="F" horiz-adv-x="1234" d="M158 0v1163l153 154h924v-307h-770v-197h770v-307h-770v-506h-307z" />
<glyph unicode="G" horiz-adv-x="1331" d="M135 657q0 276 191.5 468t468.5 192q195 0 342 -98q102 -68 256 -246l-232 -201q-109 127 -155 164q-94 74 -211 74q-145 0 -249 -103.5t-104 -249.5q0 -147 102.5 -248.5t250.5 -101.5q131 0 229 86v37h-395v307h549l153 -155v-252l-37 -101q-199 -229 -499 -229 q-276 0 -468 190.5t-192 466.5z" />
<glyph unicode="H" horiz-adv-x="1335" d="M158 0v1317h307v-504h565v504h307v-1317h-307v506h-565v-506h-307z" />
<glyph unicode="I" horiz-adv-x="858" d="M158 0v307h196v703h-196v307h702v-307h-198v-703h198v-307h-702z" />
<glyph unicode="J" horiz-adv-x="858" d="M-76 -113h154q117 0 196.5 81t79.5 198v844h-196v307h702v-307h-198v-844q0 -246 -169 -416t-415 -170h-154v307z" />
<glyph unicode="K" horiz-adv-x="1234" d="M158 0v1317h307v-490l555 553l217 -217l-455 -452l551 -711h-389l-381 492l-98 -97v-395h-307z" />
<glyph unicode="L" horiz-adv-x="854" d="M158 154v1163h307v-1010h391v-307h-545z" />
<glyph unicode="M" horiz-adv-x="1968" d="M158 0v786q0 223 153.5 377t376.5 154q221 0 375 -158q156 158 377 158q223 0 376.5 -153.5t153.5 -377.5v-786h-307v786q0 92 -65.5 158t-157.5 66t-157.5 -65.5t-65.5 -158.5h-308q0 92 -64.5 158t-156.5 66t-157.5 -65.5t-65.5 -158.5v-786h-307zM907 170q0 66 45 111 t111 45t111 -45t45 -111q0 -63 -46.5 -109.5t-109.5 -46.5q-66 0 -111 45t-45 111zM907 580q0 66 45 110.5t111 44.5t111 -44.5t45 -110.5q0 -63 -46.5 -109.5t-109.5 -46.5q-66 0 -111 45t-45 111z" />
<glyph unicode="N" horiz-adv-x="1499" d="M158 0v842q0 199 137 337t336 138q201 0 338 -137.5t137 -337.5v-553q0 -43 43 -43q45 0 45 43v1028h307v-1026q0 -147 -102.5 -249.5t-249.5 -102.5q-145 0 -247.5 102t-102.5 248v553q0 70 -49.5 119t-118.5 49q-70 0 -118 -49.5t-48 -118.5v-842h-307z" />
<glyph unicode="O" horiz-adv-x="1452" d="M135 657q0 276 191.5 468t468.5 192q276 0 466.5 -192t190.5 -468t-190.5 -466.5t-466.5 -190.5t-468 190.5t-192 466.5zM442 657q0 -147 102.5 -248.5t250.5 -101.5q145 0 247.5 102.5t102.5 247.5q0 147 -101.5 250t-248.5 103q-145 0 -249 -103.5t-104 -249.5z" />
<glyph unicode="P" horiz-adv-x="1228" d="M158 0v1163l153 154h389q223 0 377 -154t154 -377t-153.5 -376.5t-377.5 -153.5h-235v-256h-307zM465 563h235q92 0 158 65.5t66 157.5t-65.5 158t-158.5 66h-235v-447z" />
<glyph unicode="Q" horiz-adv-x="1452" d="M135 657q0 276 191.5 468t468.5 192q276 0 466.5 -192t190.5 -468q0 -229 -140.5 -408t-363.5 -231v-36q0 -55 56 -56h153v-307h-153q-152 0 -257.5 105.5t-105.5 257.5v36q-223 51 -364.5 229.5t-141.5 409.5zM442 657q0 -147 102.5 -248.5t250.5 -101.5 q145 0 247.5 102.5t102.5 247.5q0 147 -101.5 250t-248.5 103q-145 0 -249 -103.5t-104 -249.5z" />
<glyph unicode="R" horiz-adv-x="1228" d="M158 0v1163l153 154h389q223 0 377 -154t154 -377q0 -264 -213 -424l141 -276l-274 -139l-310 616h125q92 0 158 65.5t66 157.5t-65.5 158t-158.5 66h-235v-1010h-307z" />
<glyph unicode="S" horiz-adv-x="1228" d="M158 0v307h665q41 0 71 29t30 70t-30 70.5t-71 29.5l-260 -2h-6q-165 0 -281 116q-118 118 -118 289q0 172 116.5 290t288.5 118h668v-307h-668q-41 0 -69.5 -30t-28.5 -71t28.5 -69.5t69.5 -28.5l260 2h6q168 -1 284 -117q118 -118 118 -290t-118 -289t-290 -117h-665z " />
<glyph unicode="T" horiz-adv-x="1099" d="M158 1010v307h948v-307h-322v-1010h-307v1010h-319z" />
<glyph unicode="U" d="M158 571v746h307v-746q0 -109 78 -186.5t186 -77.5q111 0 187.5 77t76.5 187v746h307v-746q0 -240 -165.5 -405.5t-405.5 -165.5t-405.5 166t-165.5 405z" />
<glyph unicode="V" horiz-adv-x="1247" d="M102 1315h324l279 -799l278 799h338l-119 -305l-352 -1010h-291z" />
<glyph unicode="W" horiz-adv-x="1968" d="M158 530v787h307v-787q0 -92 65.5 -157.5t157.5 -65.5t156.5 65.5t64.5 157.5h308q0 -92 65.5 -157.5t157.5 -65.5t157.5 65.5t65.5 157.5v787h307v-787q0 -223 -153.5 -376.5t-376.5 -153.5q-221 0 -377 158q-154 -158 -375 -158q-223 0 -376.5 153.5t-153.5 376.5z M909 737q0 63 46 109.5t110 46.5q66 0 111 -45t45 -111t-45.5 -110.5t-110.5 -44.5q-66 0 -111 45t-45 110zM909 1147q0 63 46 109.5t110 46.5q66 0 111 -45t45 -111t-45.5 -111t-110.5 -45q-66 0 -111 45t-45 111z" />
<glyph unicode="X" horiz-adv-x="1196" d="M158 0v293q0 213 151 366q-152 152 -151 365v293h307v-293q0 -88 62.5 -149.5t150.5 -61.5t150.5 61.5t62.5 149.5v293h307v-293q0 -213 -151 -365q152 -154 151 -366v-293h-307v293q0 88 -62.5 150.5t-150.5 62.5t-150.5 -62.5t-62.5 -150.5v-293h-307z" />
<glyph unicode="Y" d="M158 1012v305h307v-305q0 -109 78 -186.5t186 -77.5q111 0 187.5 76.5t76.5 187.5v305h307v-305q0 -195 -115.5 -347.5t-301.5 -201.5v-463h-308v463q-186 49 -301.5 201.5t-115.5 347.5z" />
<glyph unicode="Z" horiz-adv-x="1335" d="M158 1010v307h1026l114 -254l-651 -756h690v-307h-1026l-116 254l653 756h-690z" />
<glyph unicode="[" horiz-adv-x="1099" d="M158 406v505q0 172 117.5 289t289.5 117h154v-307h-154q-43 0 -71.5 -28t-28.5 -71v-505q0 -41 29.5 -70t70.5 -29h154v-307h-154q-172 0 -289.5 116.5t-117.5 289.5z" />
<glyph unicode="\" horiz-adv-x="923" d="M162 1257l289 101l454 -1299l-291 -102z" />
<glyph unicode="]" horiz-adv-x="1099" d="M158 0v307h153q41 0 71 29t30 70v505q0 41 -30 70t-71 29h-153v307h153q172 0 290 -117t118 -289v-505q0 -172 -118 -289t-290 -117h-153z" />
<glyph unicode="^" horiz-adv-x="1046" d="M172 1098l217 217h434l217 -215l-217 -219l-217 217l-217 -217z" />
<glyph unicode="_" horiz-adv-x="1067" d="M158 0v307h907v-307h-907z" />
<glyph unicode="`" horiz-adv-x="886" d="M160 1098l217 217l469 -469h-434z" />
<glyph unicode="a" horiz-adv-x="1454" d="M135 657q-1 276 191 469q190 191 463 191h6l252 -2q170 -2 287.5 -119t117.5 -287l2 -909h-307v102q-162 -102 -352 -102q-276 0 -468 190.5t-192 466.5zM442 657q0 -147 102.5 -248.5t250.5 -101.5q145 0 247.5 102.5t102.5 247.5v252q0 41 -29 70t-69 29l-252 2h-6 q-145 0 -245 -100q-102 -102 -102 -253z" />
<glyph unicode="b" horiz-adv-x="1454" d="M135 1638h307l2 -424q160 102 351 103q276 0 467.5 -192t191.5 -468t-191.5 -466.5t-467.5 -190.5h-252q-170 0 -288 118t-118 288zM444 408q0 -41 29 -71t70 -30h252q147 0 249.5 101.5t102.5 248.5q0 145 -103.5 249t-248.5 104q-147 0 -249 -102.5t-102 -250.5v-249z " />
<glyph unicode="c" horiz-adv-x="1392" d="M135 657q0 276 191.5 468t468.5 192q195 0 342 -98q102 -68 256 -246l-232 -201q-109 127 -155 164q-94 74 -211 74q-145 0 -249 -103.5t-104 -249.5q0 -147 102.5 -248.5t250.5 -101.5q117 0 211 74q47 37 155 166l232 -201l-99 -117q-193 -229 -499 -229 q-276 0 -468 190.5t-192 466.5z" />
<glyph unicode="d" horiz-adv-x="1454" d="M135 657q0 276 191.5 468t468.5 192q190 0 352 -103v424h307l-2 -1232q0 -170 -117.5 -288t-287.5 -118h-252q-276 0 -468 190.5t-192 466.5zM442 657q0 -147 102.5 -248.5t250.5 -101.5h252q41 0 69.5 30t28.5 71v249q0 147 -101.5 250t-248.5 103q-145 0 -249 -103.5 t-104 -249.5z" />
<glyph unicode="e" horiz-adv-x="1292" d="M135 657q0 276 191.5 468t468.5 192q301 0 497 -230v-196l-573 -576q37 -8 76 -8q117 0 211 74q47 37 155 166l131 -121l2 -197q-193 -229 -499 -229q-276 0 -468 190.5t-192 466.5zM442 657q0 -78 35 -149l469 467q-72 35 -151 35q-145 0 -249 -103.5t-104 -249.5z" />
<glyph unicode="f" horiz-adv-x="1228" d="M158 0v408q0 141 88 251q-88 111 -88 252q0 172 116.5 289t288.5 117h668v-307h-668q-41 0 -69.5 -29t-28.5 -70t28.5 -69.5t69.5 -28.5h668v-307h-668q-41 0 -69.5 -28.5t-28.5 -69.5v-408h-307z" />
<glyph unicode="g" horiz-adv-x="1449" d="M29 -55q0 113 61.5 204t165.5 132q-121 170 -121 376q0 276 191.5 468t468.5 192q276 0 466.5 -191.5t190.5 -468.5v-251q0 -170 -117.5 -288t-287.5 -118h-656q-55 0 -55 -55t55 -56h809v-307h-809q-152 0 -257 105.5t-105 257.5zM442 657q0 -141 96.5 -245.5 t237.5 -104.5h271q41 0 69.5 30t28.5 71v249q0 147 -101.5 250t-248.5 103q-145 0 -249 -103.5t-104 -249.5zM1100 1477q0 63 46 109t109 46q66 0 111 -44.5t45 -110.5t-45 -111t-111 -45t-110.5 45t-44.5 111z" />
<glyph unicode="h" horiz-adv-x="1302" d="M158 0v1638h307v-387q123 66 264 66q240 0 405.5 -166t165.5 -406v-745h-307v745q0 111 -76.5 188t-187.5 77q-109 0 -186.5 -78t-77.5 -187v-745h-307z" />
<glyph unicode="i" horiz-adv-x="466" d="M158 0v1317h307v-1317h-307zM158 1559q0 63 46 109t109 46q66 0 111 -44.5t45 -110.5t-45 -111t-111 -45t-110.5 45t-44.5 111z" />
<glyph unicode="j" horiz-adv-x="466" d="M-272 -113h153q117 0 197 81t80 198v1151h307v-1151q0 -246 -169 -416t-415 -170h-153v307zM158 1559q0 63 46 109t109 46q66 0 111 -44.5t45 -110.5t-45 -111t-111 -45t-110.5 45t-44.5 111z" />
<glyph unicode="k" horiz-adv-x="1234" d="M158 0v1638h307v-811l555 553l217 -217l-455 -452l551 -711h-389l-381 492l-98 -97v-395h-307z" />
<glyph unicode="l" horiz-adv-x="733" d="M158 154v1484h307v-1331h268v-307h-422z" />
<glyph unicode="m" horiz-adv-x="2050" d="M158 0v745q0 240 165.5 406t405.5 166q213 0 375 -141q162 141 375 141q240 0 405.5 -166t165.5 -406v-745h-307v745q0 111 -77 188t-187 77q-109 0 -203 -95q24 -81 24 -163v-7v-745h-307v745q0 111 -76.5 188t-187.5 77q-109 0 -186.5 -78t-77.5 -187v-745h-307z" />
<glyph unicode="n" horiz-adv-x="1302" d="M158 0v745q0 240 165.5 406t405.5 166t405.5 -166t165.5 -406v-745h-307v745q0 111 -76.5 188t-187.5 77q-109 0 -186.5 -78t-77.5 -187v-745h-307z" />
<glyph unicode="o" horiz-adv-x="1452" d="M135 657q0 276 191.5 468t468.5 192q276 0 466.5 -192t190.5 -468t-190.5 -466.5t-466.5 -190.5t-468 190.5t-192 466.5zM442 657q0 -147 102.5 -248.5t250.5 -101.5q145 0 247.5 102.5t102.5 247.5q0 147 -101.5 250t-248.5 103q-145 0 -249 -103.5t-104 -249.5z" />
<glyph unicode="p" horiz-adv-x="1228" d="M158 0v1163l153 154h389q223 0 377 -154t154 -377t-153.5 -376.5t-377.5 -153.5h-235v-256h-307zM465 563h235q92 0 158 65.5t66 157.5t-65.5 158t-158.5 66h-235v-447z" />
<glyph unicode="q" horiz-adv-x="1335" d="M158 657q0 279 192 471q189 189 461 189h6l365 -2l153 -154v-1200q0 -117 81 -197.5t198 -80.5h153v-308h-153q-246 0 -416 170t-170 416v39h-213q-276 0 -466.5 190.5t-190.5 466.5zM465 657q0 -145 102.5 -247.5t247.5 -102.5h213v703h-213q-147 0 -248.5 -102.5 t-101.5 -250.5z" />
<glyph unicode="r" horiz-adv-x="839" d="M158 0v786q0 223 153.5 377t376.5 154h154v-307h-154q-92 0 -157.5 -65.5t-65.5 -158.5v-786h-307z" />
<glyph unicode="s" horiz-adv-x="1228" d="M158 0v307h665q41 0 71 29t30 70t-30 70.5t-71 29.5l-260 -2h-6q-165 0 -281 116q-118 118 -118 289q0 172 116.5 290t288.5 118h668v-307h-668q-41 0 -69.5 -30t-28.5 -71t28.5 -69.5t69.5 -28.5l260 2h6q168 -1 284 -117q118 -118 118 -290t-118 -289t-290 -117h-665z " />
<glyph unicode="t" horiz-adv-x="839" d="M158 530v940h307v-153h377v-307h-377v-480q0 -92 65.5 -157.5t157.5 -65.5h154v-307h-154q-223 0 -376.5 153.5t-153.5 376.5z" />
<glyph unicode="u" d="M158 571v746h307v-746q0 -109 78 -186.5t186 -77.5q111 0 187.5 77t76.5 187v746h307v-746q0 -240 -165.5 -405.5t-405.5 -165.5t-405.5 166t-165.5 405z" />
<glyph unicode="v" horiz-adv-x="1247" d="M102 1315h324l279 -799l278 799h338l-119 -305l-352 -1010h-291z" />
<glyph unicode="w" horiz-adv-x="2050" d="M158 571v746h307v-746q0 -109 78 -186.5t186 -77.5q111 0 187.5 77t76.5 187v746h307v-746q0 -86 -24 -170l6 -6q88 -88 197 -88q111 0 187.5 77t76.5 187v746h307v-746q0 -240 -166 -405.5t-405 -165.5q-209 0 -371 143q-162 -143 -379 -143q-240 0 -405.5 166 t-165.5 405z" />
<glyph unicode="x" horiz-adv-x="1196" d="M158 0v293q0 213 151 366q-152 152 -151 365v293h307v-293q0 -88 62.5 -149.5t150.5 -61.5t150.5 61.5t62.5 149.5v293h307v-293q0 -213 -151 -365q152 -154 151 -366v-293h-307v293q0 88 -62.5 150.5t-150.5 62.5t-150.5 -62.5t-62.5 -150.5v-293h-307z" />
<glyph unicode="y" d="M158 827v490h307v-490q0 -109 78 -186.5t186 -77.5q111 0 187.5 77t76.5 187v490h307v-490q0 -195 -115.5 -347t-301.5 -201v-279h-308v279q-186 49 -301.5 201.5t-115.5 346.5z" />
<glyph unicode="z" horiz-adv-x="1335" d="M158 1010v307h1026l114 -254l-651 -756h690v-307h-1026l-116 254l653 756h-690z" />
<glyph unicode="{" horiz-adv-x="1099" d="M135 657q0 274 178 447q145 139 435 229l90 -295q-195 -59 -271 -116q-125 -94 -125 -265q0 -170 125 -262q78 -58 271 -119l-90 -292l-148 45q-207 63 -336 237t-129 391z" />
<glyph unicode="|" horiz-adv-x="466" d="M158 -205v1727h307v-1727h-307z" />
<glyph unicode="}" horiz-adv-x="1099" d="M98 276l146 48q113 37 180.5 126t67.5 207q0 170 -123 265q-76 57 -271 116l90 295q291 -90 435 -229q176 -171 176 -447q0 -272 -178 -444q-145 -139 -433 -229z" />
<glyph unicode="~" horiz-adv-x="1228" d="M219 870v107q0 141 97.5 239.5t238.5 98.5q164 0 268 -133q10 -14 31 -15q41 0 41 39v109h297v-109q0 -139 -98.5 -237.5t-239.5 -98.5q-164 0 -268 131q-10 16 -31 17q-39 0 -39 -41v-107h-297z" />
<glyph unicode="&#xa1;" horiz-adv-x="466" d="M158 -410v918h307v-918h-307zM158 750q0 66 45 110.5t110 44.5q63 0 109.5 -46t46.5 -109q0 -66 -45 -111t-111 -45t-110.5 45t-44.5 111z" />
<glyph unicode="&#xa2;" horiz-adv-x="2336" d="M164 864q0 150 103.5 254.5t252.5 106.5q109 193 299.5 303t411.5 110t411.5 -110.5t301.5 -302.5q150 -2 253 -106.5t103 -254.5q0 -137 -87 -237.5t-224 -118.5q-94 -231 -300 -369.5t-458 -138.5q-250 0 -457 139.5t-301 368.5q-135 20 -222 120.5t-87 235.5zM307 864 q0 -96 72 -160.5t168 -54.5q35 -139 121 -254q43 57 96 105q-106 43 -107 157q0 72 50.5 122t121.5 50q72 0 121 -50t49 -122v-18q113 39 232 39q121 0 233 -39q-2 10 -2 18q0 72 50.5 122t121.5 50q72 0 122 -50t50 -122q0 -115 -106 -157q53 -47 96 -105q86 115 121 256 q96 -12 168 51.5t72 161.5q0 90 -63.5 153.5t-154.5 63.5q-25 0 -51 -6q-80 207 -257 328t-400 121q-221 0 -399.5 -122t-258.5 -327q-25 6 -49 6q-90 0 -153.5 -63.5t-63.5 -153.5zM406 864q0 49 33.5 84t80.5 35q13 0 25 -2q-18 -80 -19 -162q0 -37 4 -71 q-51 -2 -87.5 31.5t-36.5 84.5zM678 657q0 -68 70 -67q67 -1 67 67t-67 68q-70 0 -70 -68zM715 1087q0 86 84 87q37 0 61.5 -25t24.5 -62q0 -84 -86 -83q-35 0 -59.5 24.5t-24.5 58.5zM788 750q0 -27 27 -27t27 27q0 25 -27 24q-27 0 -27 -24zM836 1247q0 57 57 58 q57 -1 57 -58t-57 -57t-57 57zM844 309q172 -129 387 -129q217 0 387 129h-774zM926 1149q0 41 41 41t41 -41t-41 -41t-41 41zM1008 1346q0 41 41 40q41 1 41 -40t-41 -41t-41 41zM1024 498q0 -47 47 -47q45 0 45 47q0 45 -45 45q-47 0 -47 -45zM1346 498q0 -47 47 -47 q45 0 45 47q0 45 -45 45q-47 0 -47 -45zM1485 657q0 -68 67 -67q68 -1 68 67t-68 68t-67 -68zM1593 750q0 -27 27 -27t27 27q0 25 -27 24q-27 0 -27 -24zM1919 981q12 2 25 2q47 0 80.5 -35t33.5 -84q0 -51 -35.5 -85t-87.5 -31q2 35 2 71q0 82 -18 162z" />
<glyph unicode="&#xa3;" horiz-adv-x="854" d="M158 154v632q0 223 153.5 377t376.5 154h154v-307h-154q-92 0 -157.5 -65.5t-65.5 -158.5v-63h227v-184h-227v-232h391v-307h-545z" />
<glyph unicode="&#xa4;" horiz-adv-x="960" d="M174 387v246h125v41h-125v246h176q47 111 144 204q195 193 464 193v-307q-137 0 -235 -90h238v-246h-355v-41h355v-246h-226q96 -80 223 -80v-307q-270 0 -464 193q-92 90 -138 194h-182z" />
<glyph unicode="&#xa5;" d="M158 1135v182h307v-182q0 -109 78 -187t186 -78q111 0 187.5 77t76.5 188v182h307v-182q0 -195 -116 -347q-53 -70 -119 -116h119v-266h-301v-62h301v-266h-301v-78h-308v78h-299v266h299v62h-299v266h117q-59 43 -117 116q-119 154 -118 347z" />
<glyph unicode="&#xa7;" horiz-adv-x="2336" d="M143 885q0 150 103.5 254t253.5 106q109 193 299 303.5t411 110.5t411.5 -110.5t301.5 -303.5q150 -2 253 -106t103 -254q0 -137 -87 -237.5t-224 -119.5q-94 -231 -300 -369.5t-458 -138.5q-250 0 -456.5 139.5t-300.5 368.5q-135 20 -222.5 121t-87.5 236zM287 885 q0 -96 71.5 -161t167.5 -54q35 -139 121 -254q43 57 96 104q-106 43 -106 158q0 72 50 122t122 50t121 -50t49 -122v-19q113 39 231 39q121 0 234 -39q-2 10 -2 19q0 72 50 122t122 50t122 -50t50 -122q0 -115 -107 -158q53 -47 97 -104q86 115 120 256q96 -12 168 51.5 t72 161.5q0 90 -63.5 153.5t-153.5 63.5q-25 0 -51 -6q-80 207 -257 327.5t-401 120.5q-221 0 -399 -122t-258 -326q-25 6 -49 6q-90 0 -153.5 -63.5t-63.5 -153.5zM338 135l74 72q25 23 55 22q72 -2 76 -73q71 -6 71 -78q0 -31 -24 -55l-72 -72l-29 31l72 71q10 10 12 25 q0 35 -38 37q-6 -10 -15 -19l-74 -71l-28 30l71 70q12 12 13 25q0 37 -35 36q-16 0 -27 -10l-71 -70zM385 885q0 49 34 84t81 35q12 -1 24 -3q-18 -80 -18 -161q0 -37 4 -72q-51 -2 -88 32t-37 85zM590 -63q-6 33 10 59l53 86l37 -23l-55 -86q-8 -12 -6 -26q8 -35 43 -29 q14 4 22 16l56 86l34 -22l-55 -86q-23 -35 -72 -35q-55 0 -67 60zM657 678q0 -68 70 -68q68 0 68 68t-68 67q-70 0 -70 -67zM694 1108q0 86 84 86q37 0 61.5 -24.5t24.5 -61.5q0 -84 -86 -84q-35 0 -59.5 24.5t-24.5 59.5zM723 -170l39 94q20 49 69 49q56 0 74 -49 q10 -27 -2 -59l-37 -94l-39 16l39 94q4 14 0 27q-10 23 -32 22q-25 0 -35 -22l-39 -92zM768 770q0 -27 27 -27q26 0 26 27q0 25 -26 25q-27 0 -27 -25zM815 1268q0 57 57 57q58 0 58 -57t-58 -58q-57 0 -57 58zM823 330q172 -129 387 -129q217 0 387 129h-774zM901 -238 l49 218l41 -9l-24 -108l90 57l22 -35l-73 -47l51 -110l-51 12l-35 76l-17 -11l-12 -53zM905 1169q0 41 41 41t41 -41t-41 -41t-41 41zM987 1366q0 41 41 41t41 -41t-41 -41t-41 41zM1004 518q0 -47 47 -47q45 0 45 47q0 45 -45 45q-47 0 -47 -45zM1081 -184q0 37 29 62.5 t66 23.5q41 -2 67 -35l-2 -27l-82 -73q4 -2 10 -3q16 0 29 9q6 4 23 22l30 -28l-14 -17q-25 -29 -70 -26q-37 0 -61.5 27.5t-24.5 64.5zM1124 -186q0 -10 4 -21l66 62q-4 2 -20 4q-47 4 -50 -45zM1249 -100l41 6l8 -68q4 -35 41 -31q35 4 31 41l-8 66l41 4l8 -65 q8 -57 -47 -80l6 -39l-43 -4l-4 37q-57 8 -66 67zM1325 518q0 -47 47 -47q45 0 45 47q0 45 -45 45q-47 0 -47 -45zM1421 -109q0 35 41 48l86 26l13 -41l-86 -26q-14 -2 -11 -17q4 -12 17 -8l35 10q27 8 49 -8t22 -45q0 -43 -39 -53l-88 -25l-10 39l86 27q12 4 8 16t-16 8 l-35 -10q-14 -4 -20 -4q-51 0 -52 63zM1464 678q0 -68 68 -68q67 0 67 68t-67 67q-68 0 -68 -67zM1534 8l37 19l24 -47q23 33 62 32q49 0 69 -43l46 -90l-37 -18l-45 90q-6 12 -21 16q-47 16 -47 -35q0 -8 4 -14l45 -90l-37 -18zM1573 770q0 -27 26 -27q27 0 27 27 q0 25 -27 25t-26 -25zM1675 90q4 20 25 16q20 -4 16 -24t-24 -16t-17 24zM1696 47l35 23l100 -150l-35 -22zM1772 70q2 33 26.5 53t56.5 18q33 -2 54 -26l65 -78l-32 -27l-66 78q-10 10 -25 12q-35 2 -39 -32q0 -16 11 -27l63 -78l-31 -26l-65 77q-20 25 -18 56zM1896 180 q-4 39 23 67.5t66 31.5l20 -19l10 -108q16 12 19 34q0 8 -4 31l41 6l4 -20q8 -37 -17.5 -69t-64.5 -36q-37 -2 -64.5 21.5t-32.5 60.5zM1898 1001q12 2 25 3q47 0 81 -35t34 -84q0 -51 -36 -85t-87 -32q2 35 2 72q0 82 -19 161zM1937 184q4 -35 37 -43l-8 90 q-31 -14 -29 -47z" />
<glyph unicode="&#xa8;" horiz-adv-x="1449" d="M362 1507q0 66 45.5 111t110.5 45q66 0 111 -45t45 -111t-45 -110.5t-111 -44.5q-63 0 -109.5 46t-46.5 109zM772 1507q0 66 45 111t111 45t110.5 -45t44.5 -111t-45 -110.5t-110 -44.5q-63 0 -109.5 46t-46.5 109z" />
<glyph unicode="&#xa9;" horiz-adv-x="1452" d="M135 657q0 276 191.5 468t468.5 192q276 0 466.5 -192t190.5 -468t-190.5 -466.5t-466.5 -190.5t-468 190.5t-192 466.5zM455 657q0 -145 100 -244.5t246 -99.5q158 0 260 121l59 70l-139 121q-12 -16 -39 -45l-4 -5q-16 -18 -43 -43q-43 -35 -94 -34q-68 0 -115 46 t-47 113q0 68 47 115t115 47q53 0 94 -35q12 -8 43 -41l2 -4q18 -18 41 -45l139 119q-84 98 -141 137q-78 53 -178 54q-145 0 -245.5 -100.5t-100.5 -246.5z" />
<glyph unicode="&#xaa;" horiz-adv-x="2336" d="M164 864q0 150 103.5 254.5t252.5 106.5q109 193 299.5 303t411.5 110t411.5 -110.5t301.5 -302.5q150 -2 253 -106.5t103 -254.5q0 -137 -87 -237.5t-224 -118.5q-94 -231 -300 -369.5t-458 -138.5q-250 0 -457 139.5t-301 368.5q-135 20 -222 120.5t-87 235.5zM307 864 q0 -96 72 -160.5t168 -54.5q35 -139 121 -254q43 57 96 105q-106 43 -107 157q0 72 50.5 122t121.5 50q72 0 121 -50t49 -122v-18q113 39 232 39q121 0 233 -39q-2 10 -2 18q0 72 50.5 122t121.5 50q72 0 122 -50t50 -122q0 -115 -106 -157q53 -47 96 -105q86 115 121 256 q96 -12 168 51.5t72 161.5q0 90 -63.5 153.5t-154.5 63.5q-25 0 -51 -6q-80 207 -257 328t-400 121q-221 0 -399.5 -122t-258.5 -327q-25 6 -49 6q-90 0 -153.5 -63.5t-63.5 -153.5zM406 864q0 49 33.5 84t80.5 35q13 0 25 -2q-18 -80 -19 -162q0 -37 4 -71 q-51 -2 -87.5 31.5t-36.5 84.5zM678 657q0 -68 70 -67q67 -1 67 67t-67 68q-70 0 -70 -68zM715 1087q0 86 84 87q37 0 61.5 -25t24.5 -62q0 -84 -86 -83q-35 0 -59.5 24.5t-24.5 58.5zM788 750q0 -27 27 -27t27 27q0 25 -27 24q-27 0 -27 -24zM836 1247q0 57 57 58 q57 -1 57 -58t-57 -57t-57 57zM844 309q172 -129 387 -129q217 0 387 129h-774zM926 1149q0 41 41 41t41 -41t-41 -41t-41 41zM1008 1346q0 41 41 40q41 1 41 -40t-41 -41t-41 41zM1024 498q0 -47 47 -47q45 0 45 47q0 45 -45 45q-47 0 -47 -45zM1346 498q0 -47 47 -47 q45 0 45 47q0 45 -45 45q-47 0 -47 -45zM1485 657q0 -68 67 -67q68 -1 68 67t-68 68t-67 -68zM1593 750q0 -27 27 -27t27 27q0 25 -27 24q-27 0 -27 -24zM1919 981q12 2 25 2q47 0 80.5 -35t33.5 -84q0 -51 -35.5 -85t-87.5 -31q2 35 2 71q0 82 -18 162z" />
<glyph unicode="&#xab;" horiz-adv-x="1042" d="M160 457v434l215 215l217 -217l-215 -215l217 -217l-217 -217zM592 457v434l215 215l217 -217l-215 -215l217 -217l-217 -217z" />
<glyph unicode="&#xac;" horiz-adv-x="2336" d="M164 864q0 150 103.5 254.5t252.5 106.5q109 193 299.5 303t411.5 110t411.5 -110.5t301.5 -302.5q150 -2 253 -106.5t103 -254.5q0 -137 -87 -237.5t-224 -118.5q-94 -231 -300 -369.5t-458 -138.5q-250 0 -457 139.5t-301 368.5q-135 20 -222 120.5t-87 235.5zM307 864 q0 -96 72 -160.5t168 -54.5q35 -139 121 -254q43 57 96 105q-106 43 -107 157q0 72 50.5 122t121.5 50q72 0 121 -50t49 -122v-18q113 39 232 39q121 0 233 -39q-2 10 -2 18q0 72 50.5 122t121.5 50q72 0 122 -50t50 -122q0 -115 -106 -157q53 -47 96 -105q86 115 121 256 q96 -12 168 51.5t72 161.5q0 90 -63.5 153.5t-154.5 63.5q-25 0 -51 -6q-80 207 -257 328t-400 121q-221 0 -399.5 -122t-258.5 -327q-25 6 -49 6q-90 0 -153.5 -63.5t-63.5 -153.5zM406 864q0 49 33.5 84t80.5 35q13 0 25 -2q-18 -80 -19 -162q0 -37 4 -71 q-51 -2 -87.5 31.5t-36.5 84.5zM678 657q0 -68 70 -67q67 -1 67 67t-67 68q-70 0 -70 -68zM715 1087q0 86 84 87q37 0 61.5 -25t24.5 -62q0 -84 -86 -83q-35 0 -59.5 24.5t-24.5 58.5zM788 750q0 -27 27 -27t27 27q0 25 -27 24q-27 0 -27 -24zM836 1247q0 57 57 58 q57 -1 57 -58t-57 -57t-57 57zM844 309q172 -129 387 -129q217 0 387 129h-774zM926 1149q0 41 41 41t41 -41t-41 -41t-41 41zM1008 1346q0 41 41 40q41 1 41 -40t-41 -41t-41 41zM1024 498q0 -47 47 -47q45 0 45 47q0 45 -45 45q-47 0 -47 -45zM1346 498q0 -47 47 -47 q45 0 45 47q0 45 -45 45q-47 0 -47 -45zM1485 657q0 -68 67 -67q68 -1 68 67t-68 68t-67 -68zM1593 750q0 -27 27 -27t27 27q0 25 -27 24q-27 0 -27 -24zM1919 981q12 2 25 2q47 0 80.5 -35t33.5 -84q0 -51 -35.5 -85t-87.5 -31q2 35 2 71q0 82 -18 162z" />
<glyph unicode="&#xad;" horiz-adv-x="466" d="M158 770q0 66 45 111t110 45q66 0 111 -45t45 -111t-45 -111t-111 -45q-63 0 -109 46.5t-46 109.5z" />
<glyph unicode="&#xae;" horiz-adv-x="1452" d="M135 657q0 276 191.5 468t468.5 192q276 0 466.5 -192t190.5 -468t-190.5 -466.5t-466.5 -190.5t-468 190.5t-192 466.5zM555 322h184v503h103q41 0 68.5 -27.5t27.5 -68.5q0 -39 -28.5 -67.5t-67.5 -28.5h-88l172 -344l166 84l-74 141q104 82 104 215q0 117 -82 199 t-198 82h-203l-84 -86v-602z" />
<glyph unicode="&#xaf;" horiz-adv-x="1488" d="M385 1384v308h684v-308h-684z" />
<glyph unicode="&#xb0;" horiz-adv-x="2336" d="M164 864q0 150 103.5 254.5t252.5 106.5q109 193 299.5 303t411.5 110t411.5 -110.5t301.5 -302.5q150 -2 253 -106.5t103 -254.5q0 -137 -87 -237.5t-224 -118.5q-94 -231 -300 -369.5t-458 -138.5q-250 0 -457 139.5t-301 368.5q-135 20 -222 120.5t-87 235.5zM307 864 q0 -96 72 -160.5t168 -54.5q35 -139 121 -254q43 57 96 105q-106 43 -107 157q0 72 50.5 122t121.5 50q72 0 121 -50t49 -122v-18q113 39 232 39q121 0 233 -39q-2 10 -2 18q0 72 50.5 122t121.5 50q72 0 122 -50t50 -122q0 -115 -106 -157q53 -47 96 -105q86 115 121 256 q96 -12 168 51.5t72 161.5q0 90 -63.5 153.5t-154.5 63.5q-25 0 -51 -6q-80 207 -257 328t-400 121q-221 0 -399.5 -122t-258.5 -327q-25 6 -49 6q-90 0 -153.5 -63.5t-63.5 -153.5zM406 864q0 49 33.5 84t80.5 35q13 0 25 -2q-18 -80 -19 -162q0 -37 4 -71 q-51 -2 -87.5 31.5t-36.5 84.5zM678 657q0 -68 70 -67q67 -1 67 67t-67 68q-70 0 -70 -68zM715 1087q0 86 84 87q37 0 61.5 -25t24.5 -62q0 -84 -86 -83q-35 0 -59.5 24.5t-24.5 58.5zM788 750q0 -27 27 -27t27 27q0 25 -27 24q-27 0 -27 -24zM836 1247q0 57 57 58 q57 -1 57 -58t-57 -57t-57 57zM844 309q172 -129 387 -129q217 0 387 129h-774zM926 1149q0 41 41 41t41 -41t-41 -41t-41 41zM1008 1346q0 41 41 40q41 1 41 -40t-41 -41t-41 41zM1024 498q0 -47 47 -47q45 0 45 47q0 45 -45 45q-47 0 -47 -45zM1346 498q0 -47 47 -47 q45 0 45 47q0 45 -45 45q-47 0 -47 -45zM1485 657q0 -68 67 -67q68 -1 68 67t-68 68t-67 -68zM1593 750q0 -27 27 -27t27 27q0 25 -27 24q-27 0 -27 -24zM1919 981q12 2 25 2q47 0 80.5 -35t33.5 -84q0 -51 -35.5 -85t-87.5 -31q2 35 2 71q0 82 -18 162z" />
<glyph unicode="&#xb1;" horiz-adv-x="2336" d="M164 864q0 150 103.5 254.5t252.5 106.5q109 193 299.5 303t411.5 110t411.5 -110.5t301.5 -302.5q150 -2 253 -106.5t103 -254.5q0 -137 -87 -237.5t-224 -118.5q-94 -231 -300 -369.5t-458 -138.5q-250 0 -457 139.5t-301 368.5q-135 20 -222 120.5t-87 235.5zM307 864 q0 -96 72 -160.5t168 -54.5q35 -139 121 -254q43 57 96 105q-106 43 -107 157q0 72 50.5 122t121.5 50q72 0 121 -50t49 -122v-18q113 39 232 39q121 0 233 -39q-2 10 -2 18q0 72 50.5 122t121.5 50q72 0 122 -50t50 -122q0 -115 -106 -157q53 -47 96 -105q86 115 121 256 q96 -12 168 51.5t72 161.5q0 90 -63.5 153.5t-154.5 63.5q-25 0 -51 -6q-80 207 -257 328t-400 121q-221 0 -399.5 -122t-258.5 -327q-25 6 -49 6q-90 0 -153.5 -63.5t-63.5 -153.5zM406 864q0 49 33.5 84t80.5 35q13 0 25 -2q-18 -80 -19 -162q0 -37 4 -71 q-51 -2 -87.5 31.5t-36.5 84.5zM678 657q0 -68 70 -67q67 -1 67 67t-67 68q-70 0 -70 -68zM715 1087q0 86 84 87q37 0 61.5 -25t24.5 -62q0 -84 -86 -83q-35 0 -59.5 24.5t-24.5 58.5zM788 750q0 -27 27 -27t27 27q0 25 -27 24q-27 0 -27 -24zM836 1247q0 57 57 58 q57 -1 57 -58t-57 -57t-57 57zM844 309q172 -129 387 -129q217 0 387 129h-774zM926 1149q0 41 41 41t41 -41t-41 -41t-41 41zM1008 1346q0 41 41 40q41 1 41 -40t-41 -41t-41 41zM1024 498q0 -47 47 -47q45 0 45 47q0 45 -45 45q-47 0 -47 -45zM1346 498q0 -47 47 -47 q45 0 45 47q0 45 -45 45q-47 0 -47 -45zM1485 657q0 -68 67 -67q68 -1 68 67t-68 68t-67 -68zM1593 750q0 -27 27 -27t27 27q0 25 -27 24q-27 0 -27 -24zM1919 981q12 2 25 2q47 0 80.5 -35t33.5 -84q0 -51 -35.5 -85t-87.5 -31q2 35 2 71q0 82 -18 162z" />
<glyph unicode="&#xb4;" horiz-adv-x="1558" d="M590 1378h434l252 252l-217 217z" />
<glyph unicode="&#xb5;" horiz-adv-x="2336" d="M164 864q0 150 103.5 254.5t252.5 106.5q109 193 299.5 303t411.5 110t411.5 -110.5t301.5 -302.5q150 -2 253 -106.5t103 -254.5q0 -137 -87 -237.5t-224 -118.5q-94 -231 -300 -369.5t-458 -138.5q-250 0 -457 139.5t-301 368.5q-135 20 -222 120.5t-87 235.5zM307 864 q0 -96 72 -160.5t168 -54.5q35 -139 121 -254q43 57 96 105q-106 43 -107 157q0 72 50.5 122t121.5 50q72 0 121 -50t49 -122v-18q113 39 232 39q121 0 233 -39q-2 10 -2 18q0 72 50.5 122t121.5 50q72 0 122 -50t50 -122q0 -115 -106 -157q53 -47 96 -105q86 115 121 256 q96 -12 168 51.5t72 161.5q0 90 -63.5 153.5t-154.5 63.5q-25 0 -51 -6q-80 207 -257 328t-400 121q-221 0 -399.5 -122t-258.5 -327q-25 6 -49 6q-90 0 -153.5 -63.5t-63.5 -153.5zM406 864q0 49 33.5 84t80.5 35q13 0 25 -2q-18 -80 -19 -162q0 -37 4 -71 q-51 -2 -87.5 31.5t-36.5 84.5zM678 657q0 -68 70 -67q67 -1 67 67t-67 68q-70 0 -70 -68zM715 1087q0 86 84 87q37 0 61.5 -25t24.5 -62q0 -84 -86 -83q-35 0 -59.5 24.5t-24.5 58.5zM788 750q0 -27 27 -27t27 27q0 25 -27 24q-27 0 -27 -24zM836 1247q0 57 57 58 q57 -1 57 -58t-57 -57t-57 57zM844 309q172 -129 387 -129q217 0 387 129h-774zM926 1149q0 41 41 41t41 -41t-41 -41t-41 41zM1008 1346q0 41 41 40q41 1 41 -40t-41 -41t-41 41zM1024 498q0 -47 47 -47q45 0 45 47q0 45 -45 45q-47 0 -47 -45zM1346 498q0 -47 47 -47 q45 0 45 47q0 45 -45 45q-47 0 -47 -45zM1485 657q0 -68 67 -67q68 -1 68 67t-68 68t-67 -68zM1593 750q0 -27 27 -27t27 27q0 25 -27 24q-27 0 -27 -24zM1919 981q12 2 25 2q47 0 80.5 -35t33.5 -84q0 -51 -35.5 -85t-87.5 -31q2 35 2 71q0 82 -18 162z" />
<glyph unicode="&#xb6;" horiz-adv-x="1591" d="M150 784q0 223 153.5 377t376.5 154h911v-1315h-307v1008h-287v-1008h-307v254h-10q-223 0 -376.5 153.5t-153.5 376.5zM457 784q0 -94 64.5 -158.5t158.5 -64.5h10v447h-10q-94 0 -158.5 -64.5t-64.5 -159.5z" />
<glyph unicode="&#xb7;" horiz-adv-x="2336" d="M143 885q0 150 103.5 254t253.5 106q109 193 299 303.5t411 110.5t411.5 -110.5t301.5 -303.5q150 -2 253 -106t103 -254q0 -137 -87 -237.5t-224 -119.5q-94 -231 -300 -369.5t-458 -138.5q-250 0 -456.5 139.5t-300.5 368.5q-135 20 -222.5 121t-87.5 236zM287 885 q0 -96 71.5 -161t167.5 -54q35 -139 121 -254q43 57 96 104q-106 43 -106 158q0 72 50 122t122 50t121 -50t49 -122v-19q113 39 231 39q121 0 234 -39q-2 10 -2 19q0 72 50 122t122 50t122 -50t50 -122q0 -115 -107 -158q53 -47 97 -104q86 115 120 256q96 -12 168 51.5 t72 161.5q0 90 -63.5 153.5t-153.5 63.5q-25 0 -51 -6q-80 207 -257 327.5t-401 120.5q-221 0 -399 -122t-258 -326q-25 6 -49 6q-90 0 -153.5 -63.5t-63.5 -153.5zM338 135l74 72q25 23 55 22q72 -2 76 -73q71 -6 71 -78q0 -31 -24 -55l-72 -72l-29 31l72 71q10 10 12 25 q0 35 -38 37q-6 -10 -15 -19l-74 -71l-28 30l71 70q12 12 13 25q0 37 -35 36q-16 0 -27 -10l-71 -70zM385 885q0 49 34 84t81 35q12 -1 24 -3q-18 -80 -18 -161q0 -37 4 -72q-51 -2 -88 32t-37 85zM590 -63q-6 33 10 59l53 86l37 -23l-55 -86q-8 -12 -6 -26q8 -35 43 -29 q14 4 22 16l56 86l34 -22l-55 -86q-23 -35 -72 -35q-55 0 -67 60zM657 678q0 -68 70 -68q68 0 68 68t-68 67q-70 0 -70 -67zM694 1108q0 86 84 86q37 0 61.5 -24.5t24.5 -61.5q0 -84 -86 -84q-35 0 -59.5 24.5t-24.5 59.5zM723 -170l39 94q20 49 69 49q56 0 74 -49 q10 -27 -2 -59l-37 -94l-39 16l39 94q4 14 0 27q-10 23 -32 22q-25 0 -35 -22l-39 -92zM768 770q0 -27 27 -27q26 0 26 27q0 25 -26 25q-27 0 -27 -25zM815 1268q0 57 57 57q58 0 58 -57t-58 -58q-57 0 -57 58zM823 330q172 -129 387 -129q217 0 387 129h-774zM901 -238 l49 218l41 -9l-24 -108l90 57l22 -35l-73 -47l51 -110l-51 12l-35 76l-17 -11l-12 -53zM905 1169q0 41 41 41t41 -41t-41 -41t-41 41zM987 1366q0 41 41 41t41 -41t-41 -41t-41 41zM1004 518q0 -47 47 -47q45 0 45 47q0 45 -45 45q-47 0 -47 -45zM1081 -184q0 37 29 62.5 t66 23.5q41 -2 67 -35l-2 -27l-82 -73q4 -2 10 -3q16 0 29 9q6 4 23 22l30 -28l-14 -17q-25 -29 -70 -26q-37 0 -61.5 27.5t-24.5 64.5zM1124 -186q0 -10 4 -21l66 62q-4 2 -20 4q-47 4 -50 -45zM1249 -100l41 6l8 -68q4 -35 41 -31q35 4 31 41l-8 66l41 4l8 -65 q8 -57 -47 -80l6 -39l-43 -4l-4 37q-57 8 -66 67zM1325 518q0 -47 47 -47q45 0 45 47q0 45 -45 45q-47 0 -47 -45zM1421 -109q0 35 41 48l86 26l13 -41l-86 -26q-14 -2 -11 -17q4 -12 17 -8l35 10q27 8 49 -8t22 -45q0 -43 -39 -53l-88 -25l-10 39l86 27q12 4 8 16t-16 8 l-35 -10q-14 -4 -20 -4q-51 0 -52 63zM1464 678q0 -68 68 -68q67 0 67 68t-67 67q-68 0 -68 -67zM1534 8l37 19l24 -47q23 33 62 32q49 0 69 -43l46 -90l-37 -18l-45 90q-6 12 -21 16q-47 16 -47 -35q0 -8 4 -14l45 -90l-37 -18zM1573 770q0 -27 26 -27q27 0 27 27 q0 25 -27 25t-26 -25zM1675 90q4 20 25 16q20 -4 16 -24t-24 -16t-17 24zM1696 47l35 23l100 -150l-35 -22zM1772 70q2 33 26.5 53t56.5 18q33 -2 54 -26l65 -78l-32 -27l-66 78q-10 10 -25 12q-35 2 -39 -32q0 -16 11 -27l63 -78l-31 -26l-65 77q-20 25 -18 56zM1896 180 q-4 39 23 67.5t66 31.5l20 -19l10 -108q16 12 19 34q0 8 -4 31l41 6l4 -20q8 -37 -17.5 -69t-64.5 -36q-37 -2 -64.5 21.5t-32.5 60.5zM1898 1001q12 2 25 3q47 0 81 -35t34 -84q0 -51 -36 -85t-87 -32q2 35 2 72q0 82 -19 161zM1937 184q4 -35 37 -43l-8 90 q-31 -14 -29 -47z" />
<glyph unicode="&#xb8;" horiz-adv-x="1452" d="M436 -74h154q55 0 55 56v34h307v-34q0 -152 -105.5 -257.5t-256.5 -105.5h-154v307z" />
<glyph unicode="&#xba;" horiz-adv-x="2336" d="M143 885q0 150 103.5 254t253.5 106q109 193 299 303.5t411 110.5t411.5 -110.5t301.5 -303.5q150 -2 253 -106t103 -254q0 -137 -87 -237.5t-224 -119.5q-94 -231 -300 -369.5t-458 -138.5q-250 0 -456.5 139.5t-300.5 368.5q-135 20 -222.5 121t-87.5 236zM287 885 q0 -96 71.5 -161t167.5 -54q35 -139 121 -254q43 57 96 104q-106 43 -106 158q0 72 50 122t122 50t121 -50t49 -122v-19q113 39 231 39q121 0 234 -39q-2 10 -2 19q0 72 50 122t122 50t122 -50t50 -122q0 -115 -107 -158q53 -47 97 -104q86 115 120 256q96 -12 168 51.5 t72 161.5q0 90 -63.5 153.5t-153.5 63.5q-25 0 -51 -6q-80 207 -257 327.5t-401 120.5q-221 0 -399 -122t-258 -326q-25 6 -49 6q-90 0 -153.5 -63.5t-63.5 -153.5zM338 135l74 72q25 23 55 22q72 -2 76 -73q71 -6 71 -78q0 -31 -24 -55l-72 -72l-29 31l72 71q10 10 12 25 q0 35 -38 37q-6 -10 -15 -19l-74 -71l-28 30l71 70q12 12 13 25q0 37 -35 36q-16 0 -27 -10l-71 -70zM385 885q0 49 34 84t81 35q12 -1 24 -3q-18 -80 -18 -161q0 -37 4 -72q-51 -2 -88 32t-37 85zM590 -63q-6 33 10 59l53 86l37 -23l-55 -86q-8 -12 -6 -26q8 -35 43 -29 q14 4 22 16l56 86l34 -22l-55 -86q-23 -35 -72 -35q-55 0 -67 60zM657 678q0 -68 70 -68q68 0 68 68t-68 67q-70 0 -70 -67zM694 1108q0 86 84 86q37 0 61.5 -24.5t24.5 -61.5q0 -84 -86 -84q-35 0 -59.5 24.5t-24.5 59.5zM723 -170l39 94q20 49 69 49q56 0 74 -49 q10 -27 -2 -59l-37 -94l-39 16l39 94q4 14 0 27q-10 23 -32 22q-25 0 -35 -22l-39 -92zM768 770q0 -27 27 -27q26 0 26 27q0 25 -26 25q-27 0 -27 -25zM815 1268q0 57 57 57q58 0 58 -57t-58 -58q-57 0 -57 58zM823 330q172 -129 387 -129q217 0 387 129h-774zM901 -238 l49 218l41 -9l-24 -108l90 57l22 -35l-73 -47l51 -110l-51 12l-35 76l-17 -11l-12 -53zM905 1169q0 41 41 41t41 -41t-41 -41t-41 41zM987 1366q0 41 41 41t41 -41t-41 -41t-41 41zM1004 518q0 -47 47 -47q45 0 45 47q0 45 -45 45q-47 0 -47 -45zM1081 -184q0 37 29 62.5 t66 23.5q41 -2 67 -35l-2 -27l-82 -73q4 -2 10 -3q16 0 29 9q6 4 23 22l30 -28l-14 -17q-25 -29 -70 -26q-37 0 -61.5 27.5t-24.5 64.5zM1124 -186q0 -10 4 -21l66 62q-4 2 -20 4q-47 4 -50 -45zM1249 -100l41 6l8 -68q4 -35 41 -31q35 4 31 41l-8 66l41 4l8 -65 q8 -57 -47 -80l6 -39l-43 -4l-4 37q-57 8 -66 67zM1325 518q0 -47 47 -47q45 0 45 47q0 45 -45 45q-47 0 -47 -45zM1421 -109q0 35 41 48l86 26l13 -41l-86 -26q-14 -2 -11 -17q4 -12 17 -8l35 10q27 8 49 -8t22 -45q0 -43 -39 -53l-88 -25l-10 39l86 27q12 4 8 16t-16 8 l-35 -10q-14 -4 -20 -4q-51 0 -52 63zM1464 678q0 -68 68 -68q67 0 67 68t-67 67q-68 0 -68 -67zM1534 8l37 19l24 -47q23 33 62 32q49 0 69 -43l46 -90l-37 -18l-45 90q-6 12 -21 16q-47 16 -47 -35q0 -8 4 -14l45 -90l-37 -18zM1573 770q0 -27 26 -27q27 0 27 27 q0 25 -27 25t-26 -25zM1675 90q4 20 25 16q20 -4 16 -24t-24 -16t-17 24zM1696 47l35 23l100 -150l-35 -22zM1772 70q2 33 26.5 53t56.5 18q33 -2 54 -26l65 -78l-32 -27l-66 78q-10 10 -25 12q-35 2 -39 -32q0 -16 11 -27l63 -78l-31 -26l-65 77q-20 25 -18 56zM1896 180 q-4 39 23 67.5t66 31.5l20 -19l10 -108q16 12 19 34q0 8 -4 31l41 6l4 -20q8 -37 -17.5 -69t-64.5 -36q-37 -2 -64.5 21.5t-32.5 60.5zM1898 1001q12 2 25 3q47 0 81 -35t34 -84q0 -51 -36 -85t-87 -32q2 35 2 72q0 82 -19 161zM1937 184q4 -35 37 -43l-8 90 q-31 -14 -29 -47z" />
<glyph unicode="&#xbb;" horiz-adv-x="1042" d="M160 457l217 -217l217 217v434l-217 215l-217 -217l217 -215zM592 457l217 -217l217 217v434l-215 215l-217 -217l215 -215z" />
<glyph unicode="&#xbf;" horiz-adv-x="1230" d="M158 -2q0 172 117.5 290t289.5 115l260 -2q41 0 70 30t29 71v30h307v-30q0 -170 -118 -290t-288 -118l-260 2q-41 0 -70.5 -28.5t-29.5 -69.5t29.5 -70.5t70.5 -29.5h666v-308h-666q-172 0 -289.5 118t-117.5 290zM920 752q0 66 45 110.5t110 44.5q63 0 109.5 -46 t46.5 -109q0 -66 -45 -111t-111 -45t-110.5 45t-44.5 111z" />
<glyph unicode="&#xc0;" d="M158 0v745q0 240 165.5 406t405.5 166t405.5 -166t165.5 -406v-745h-307v256h-528v-256h-307zM465 563h528v182q0 111 -76.5 188t-187.5 77q-109 0 -186.5 -78t-77.5 -187v-182z" />
<glyph unicode="&#xc1;" d="M158 0v745q0 240 165.5 406t405.5 166t405.5 -166t165.5 -406v-745h-307v256h-528v-256h-307zM406 1378h434l252 252l-217 217zM465 563h528v182q0 111 -76.5 188t-187.5 77q-109 0 -186.5 -78t-77.5 -187v-182z" />
<glyph unicode="&#xc2;" d="M158 0v745q0 240 165.5 406t405.5 166t405.5 -166t165.5 -406v-745h-307v256h-528v-256h-307zM289 1599l217 218h434l215 -215l-217 -218l-215 215l-217 -217zM465 563h528v182q0 111 -76.5 188t-187.5 77q-109 0 -186.5 -78t-77.5 -187v-182z" />
<glyph unicode="&#xc3;" d="M158 0v745q0 240 165.5 406t405.5 166t405.5 -166t165.5 -406v-745h-307v256h-528v-256h-307zM260 1384v109q0 139 98.5 237.5t237.5 98.5q164 0 268 -131q10 -16 31 -17q41 0 41 41v107h297v-107q0 -141 -98.5 -239.5t-239.5 -98.5q-164 1 -268 134q-10 14 -31 14 q-39 0 -39 -39v-109h-297zM465 563h528v182q0 111 -76.5 188t-187.5 77q-109 0 -186.5 -78t-77.5 -187v-182z" />
<glyph unicode="&#xc4;" d="M158 0v745q0 240 165.5 406t405.5 166t405.5 -166t165.5 -406v-745h-307v256h-528v-256h-307zM362 1507q0 66 45.5 111t110.5 45q66 0 111 -45t45 -111t-45 -110.5t-111 -44.5q-63 0 -109.5 46t-46.5 109zM465 563h528v182q0 111 -76.5 188t-187.5 77q-109 0 -186.5 -78 t-77.5 -187v-182zM772 1507q0 66 45 111t111 45t110.5 -45t44.5 -111t-45 -110.5t-110 -44.5q-63 0 -109.5 46t-46.5 109z" />
<glyph unicode="&#xc5;" d="M158 0v745q0 240 165.5 406t405.5 166t405.5 -166t165.5 -406v-745h-307v256h-528v-256h-307zM465 563h528v182q0 111 -76.5 188t-187.5 77q-109 0 -186.5 -78t-77.5 -187v-182zM498 1589q0 90 62.5 152.5t152.5 62.5t152.5 -62.5t62.5 -152.5t-62.5 -152.5t-152.5 -62.5 q-88 0 -151.5 63.5t-63.5 151.5zM662 1589q0 -51 51 -51t51 51t-51 51t-51 -51z" />
<glyph unicode="&#xc6;" horiz-adv-x="2066" d="M158 0v745q0 240 165.5 406t405.5 166q213 0 369 -135q123 135 301 135h667v-307h-667q-41 0 -70 -29t-29 -70t29 -69.5t70 -28.5h667v-307h-667q-41 0 -70 -28.5t-29 -69.5t29 -71t70 -30h667v-307h-667q-51 0 -99 10v-10h-307v256h-528v-256h-307zM465 563h528v182 q0 111 -76.5 188t-187.5 77q-109 0 -186.5 -78t-77.5 -187v-182z" />
<glyph unicode="&#xc7;" horiz-adv-x="1452" d="M135 657q0 276 191.5 468t468.5 192q195 0 342 -98q102 -68 256 -246l-232 -201q-109 127 -155 164q-94 74 -211 74q-145 0 -249 -103.5t-104 -249.5q0 -147 102.5 -248.5t250.5 -101.5q117 0 211 74q47 37 155 166l232 -201l-99 -117q-139 -166 -342 -213v-34 q0 -152 -105.5 -257.5t-256.5 -105.5h-154v307h154q55 0 55 56v34q-176 39 -315 177q-195 193 -195 464z" />
<glyph unicode="&#xc8;" horiz-adv-x="1230" d="M158 408q0 141 88 251q-88 111 -88 252q0 172 116.5 289t288.5 117h668v-307h-668q-41 0 -69.5 -29t-28.5 -70t28.5 -69.5t69.5 -28.5h668v-307h-668q-41 0 -69.5 -28.5t-28.5 -69.5t28.5 -71t69.5 -30h668v-307h-668q-172 0 -288.5 118t-116.5 290zM344 1651l217 217 l469 -469h-434z" />
<glyph unicode="&#xc9;" horiz-adv-x="1230" d="M158 408q0 141 88 251q-88 111 -88 252q0 172 116.5 289t288.5 117h668v-307h-668q-41 0 -69.5 -29t-28.5 -70t28.5 -69.5t69.5 -28.5h668v-307h-668q-41 0 -69.5 -28.5t-28.5 -69.5t28.5 -71t69.5 -30h668v-307h-668q-172 0 -288.5 118t-116.5 290zM467 1378h434 l252 252l-217 217z" />
<glyph unicode="&#xca;" horiz-adv-x="1230" d="M158 408q0 141 88 251q-88 111 -88 252q0 172 116.5 289t288.5 117h668v-307h-668q-41 0 -69.5 -29t-28.5 -70t28.5 -69.5t69.5 -28.5h668v-307h-668q-41 0 -69.5 -28.5t-28.5 -69.5t28.5 -71t69.5 -30h668v-307h-668q-172 0 -288.5 118t-116.5 290zM289 1599l217 218 h434l215 -215l-217 -218l-215 215l-217 -217z" />
<glyph unicode="&#xcb;" horiz-adv-x="1230" d="M158 408q0 141 88 251q-88 111 -88 252q0 172 116.5 289t288.5 117h668v-307h-668q-41 0 -69.5 -29t-28.5 -70t28.5 -69.5t69.5 -28.5h668v-307h-668q-41 0 -69.5 -28.5t-28.5 -69.5t28.5 -71t69.5 -30h668v-307h-668q-172 0 -288.5 118t-116.5 290zM362 1507 q0 66 45.5 111t110.5 45q66 0 111 -45t45 -111t-45 -110.5t-111 -44.5q-63 0 -109.5 46t-46.5 109zM772 1507q0 66 45 111t111 45t110.5 -45t44.5 -111t-45 -110.5t-110 -44.5q-63 0 -109.5 46t-46.5 109z" />
<glyph unicode="&#xcc;" horiz-adv-x="858" d="M158 0v307h196v703h-196v307h702v-307h-198v-703h198v-307h-702zM180 1651l217 217l469 -469h-434z" />
<glyph unicode="&#xcd;" horiz-adv-x="858" d="M158 0v307h196v703h-196v307h702v-307h-198v-703h198v-307h-702zM180 1378h434l252 252l-217 217z" />
<glyph unicode="&#xce;" horiz-adv-x="858" d="M64 1599l217 218h434l215 -215l-217 -218l-215 215l-217 -217zM158 0v307h196v703h-196v307h702v-307h-198v-703h198v-307h-702z" />
<glyph unicode="&#xcf;" horiz-adv-x="858" d="M157 1507q0 66 45.5 111t110.5 45q66 0 111 -45t45 -111t-45 -110.5t-111 -44.5q-63 0 -109.5 46t-46.5 109zM158 0v307h196v703h-196v307h702v-307h-198v-703h198v-307h-702zM567 1507q0 66 45 111t111 45t110.5 -45t44.5 -111t-45 -110.5t-110 -44.5q-63 0 -109.5 46 t-46.5 109z" />
<glyph unicode="&#xd0;" horiz-adv-x="2336" d="M143 885q0 150 103.5 254t253.5 106q109 193 299 303.5t411 110.5t411.5 -110.5t301.5 -303.5q150 -2 253 -106t103 -254q0 -137 -87 -237.5t-224 -119.5q-94 -231 -300 -369.5t-458 -138.5q-250 0 -456.5 139.5t-300.5 368.5q-135 20 -222.5 121t-87.5 236zM287 885 q0 -96 71.5 -161t167.5 -54q35 -139 121 -254q43 57 96 104q-106 43 -106 158q0 72 50 122t122 50t121 -50t49 -122v-19q113 39 231 39q121 0 234 -39q-2 10 -2 19q0 72 50 122t122 50t122 -50t50 -122q0 -115 -107 -158q53 -47 97 -104q86 115 120 256q96 -12 168 51.5 t72 161.5q0 90 -63.5 153.5t-153.5 63.5q-25 0 -51 -6q-80 207 -257 327.5t-401 120.5q-221 0 -399 -122t-258 -326q-25 6 -49 6q-90 0 -153.5 -63.5t-63.5 -153.5zM338 135l74 72q25 23 55 22q72 -2 76 -73q71 -6 71 -78q0 -31 -24 -55l-72 -72l-29 31l72 71q10 10 12 25 q0 35 -38 37q-6 -10 -15 -19l-74 -71l-28 30l71 70q12 12 13 25q0 37 -35 36q-16 0 -27 -10l-71 -70zM385 885q0 49 34 84t81 35q12 -1 24 -3q-18 -80 -18 -161q0 -37 4 -72q-51 -2 -88 32t-37 85zM590 -63q-6 33 10 59l53 86l37 -23l-55 -86q-8 -12 -6 -26q8 -35 43 -29 q14 4 22 16l56 86l34 -22l-55 -86q-23 -35 -72 -35q-55 0 -67 60zM657 678q0 -68 70 -68q68 0 68 68t-68 67q-70 0 -70 -67zM694 1108q0 86 84 86q37 0 61.5 -24.5t24.5 -61.5q0 -84 -86 -84q-35 0 -59.5 24.5t-24.5 59.5zM723 -170l39 94q20 49 69 49q56 0 74 -49 q10 -27 -2 -59l-37 -94l-39 16l39 94q4 14 0 27q-10 23 -32 22q-25 0 -35 -22l-39 -92zM768 770q0 -27 27 -27q26 0 26 27q0 25 -26 25q-27 0 -27 -25zM815 1268q0 57 57 57q58 0 58 -57t-58 -58q-57 0 -57 58zM823 330q172 -129 387 -129q217 0 387 129h-774zM901 -238 l49 218l41 -9l-24 -108l90 57l22 -35l-73 -47l51 -110l-51 12l-35 76l-17 -11l-12 -53zM905 1169q0 41 41 41t41 -41t-41 -41t-41 41zM987 1366q0 41 41 41t41 -41t-41 -41t-41 41zM1004 518q0 -47 47 -47q45 0 45 47q0 45 -45 45q-47 0 -47 -45zM1081 -184q0 37 29 62.5 t66 23.5q41 -2 67 -35l-2 -27l-82 -73q4 -2 10 -3q16 0 29 9q6 4 23 22l30 -28l-14 -17q-25 -29 -70 -26q-37 0 -61.5 27.5t-24.5 64.5zM1124 -186q0 -10 4 -21l66 62q-4 2 -20 4q-47 4 -50 -45zM1249 -100l41 6l8 -68q4 -35 41 -31q35 4 31 41l-8 66l41 4l8 -65 q8 -57 -47 -80l6 -39l-43 -4l-4 37q-57 8 -66 67zM1325 518q0 -47 47 -47q45 0 45 47q0 45 -45 45q-47 0 -47 -45zM1421 -109q0 35 41 48l86 26l13 -41l-86 -26q-14 -2 -11 -17q4 -12 17 -8l35 10q27 8 49 -8t22 -45q0 -43 -39 -53l-88 -25l-10 39l86 27q12 4 8 16t-16 8 l-35 -10q-14 -4 -20 -4q-51 0 -52 63zM1464 678q0 -68 68 -68q67 0 67 68t-67 67q-68 0 -68 -67zM1534 8l37 19l24 -47q23 33 62 32q49 0 69 -43l46 -90l-37 -18l-45 90q-6 12 -21 16q-47 16 -47 -35q0 -8 4 -14l45 -90l-37 -18zM1573 770q0 -27 26 -27q27 0 27 27 q0 25 -27 25t-26 -25zM1675 90q4 20 25 16q20 -4 16 -24t-24 -16t-17 24zM1696 47l35 23l100 -150l-35 -22zM1772 70q2 33 26.5 53t56.5 18q33 -2 54 -26l65 -78l-32 -27l-66 78q-10 10 -25 12q-35 2 -39 -32q0 -16 11 -27l63 -78l-31 -26l-65 77q-20 25 -18 56zM1896 180 q-4 39 23 67.5t66 31.5l20 -19l10 -108q16 12 19 34q0 8 -4 31l41 6l4 -20q8 -37 -17.5 -69t-64.5 -36q-37 -2 -64.5 21.5t-32.5 60.5zM1898 1001q12 2 25 3q47 0 81 -35t34 -84q0 -51 -36 -85t-87 -32q2 35 2 72q0 82 -19 161zM1937 184q4 -35 37 -43l-8 90 q-31 -14 -29 -47z" />
<glyph unicode="&#xd1;" horiz-adv-x="1499" d="M158 0v842q0 199 137 337t336 138q201 0 338 -137.5t137 -337.5v-553q0 -43 43 -43q45 0 45 43v1028h307v-1026q0 -147 -102.5 -249.5t-249.5 -102.5q-145 0 -247.5 102t-102.5 248v553q0 70 -49.5 119t-118.5 49q-70 0 -118 -49.5t-48 -118.5v-842h-307zM321 1384v109 q0 139 98.5 237.5t237.5 98.5q164 0 268 -131q10 -16 31 -17q41 0 41 41v107h297v-107q0 -141 -98.5 -239.5t-239.5 -98.5q-164 1 -268 134q-10 14 -31 14q-39 0 -39 -39v-109h-297z" />
<glyph unicode="&#xd2;" horiz-adv-x="1452" d="M135 657q0 276 191.5 468t468.5 192q276 0 466.5 -192t190.5 -468t-190.5 -466.5t-466.5 -190.5t-468 190.5t-192 466.5zM385 1651l217 217l469 -469h-434zM442 657q0 -147 102.5 -248.5t250.5 -101.5q145 0 247.5 102.5t102.5 247.5q0 147 -101.5 250t-248.5 103 q-145 0 -249 -103.5t-104 -249.5z" />
<glyph unicode="&#xd3;" horiz-adv-x="1452" d="M135 657q0 276 191.5 468t468.5 192q276 0 466.5 -192t190.5 -468t-190.5 -466.5t-466.5 -190.5t-468 190.5t-192 466.5zM442 657q0 -147 102.5 -248.5t250.5 -101.5q145 0 247.5 102.5t102.5 247.5q0 147 -101.5 250t-248.5 103q-145 0 -249 -103.5t-104 -249.5z M467 1378h434l252 252l-217 217z" />
<glyph unicode="&#xd4;" horiz-adv-x="1452" d="M135 657q0 276 191.5 468t468.5 192q276 0 466.5 -192t190.5 -468t-190.5 -466.5t-466.5 -190.5t-468 190.5t-192 466.5zM350 1599l217 218h434l215 -215l-217 -218l-215 215l-217 -217zM442 657q0 -147 102.5 -248.5t250.5 -101.5q145 0 247.5 102.5t102.5 247.5 q0 147 -101.5 250t-248.5 103q-145 0 -249 -103.5t-104 -249.5z" />
<glyph unicode="&#xd5;" horiz-adv-x="1452" d="M135 657q0 276 191.5 468t468.5 192q276 0 466.5 -192t190.5 -468t-190.5 -466.5t-466.5 -190.5t-468 190.5t-192 466.5zM342 1384v109q0 139 98.5 237.5t237.5 98.5q164 0 268 -131q10 -16 31 -17q41 0 41 41v107h297v-107q0 -141 -98.5 -239.5t-239.5 -98.5 q-164 1 -268 134q-10 14 -31 14q-39 0 -39 -39v-109h-297zM442 657q0 -147 102.5 -248.5t250.5 -101.5q145 0 247.5 102.5t102.5 247.5q0 147 -101.5 250t-248.5 103q-145 0 -249 -103.5t-104 -249.5z" />
<glyph unicode="&#xd6;" horiz-adv-x="1452" d="M135 657q0 276 191.5 468t468.5 192q276 0 466.5 -192t190.5 -468t-190.5 -466.5t-466.5 -190.5t-468 190.5t-192 466.5zM442 657q0 -147 102.5 -248.5t250.5 -101.5q145 0 247.5 102.5t102.5 247.5q0 147 -101.5 250t-248.5 103q-145 0 -249 -103.5t-104 -249.5z M444 1507q0 66 45.5 111t110.5 45q66 0 111 -45t45 -111t-45 -110.5t-111 -44.5q-63 0 -109.5 46t-46.5 109zM854 1507q0 66 45 111t111 45t110.5 -45t44.5 -111t-45 -110.5t-110 -44.5q-63 0 -109.5 46t-46.5 109z" />
<glyph unicode="&#xd8;" horiz-adv-x="1452" d="M135 657q0 276 191.5 468t468.5 192q276 0 466.5 -192t190.5 -468t-190.5 -466.5t-466.5 -190.5t-468 190.5t-192 466.5zM442 657q1 -61 19 -114l450 448q-53 18 -116 19q-145 0 -249 -103.5t-104 -249.5zM676 326q55 -18 119 -19q145 0 247.5 102.5t102.5 247.5 q-1 60 -19 113z" />
<glyph unicode="&#xd9;" d="M158 571v746h307v-746q0 -109 78 -186.5t186 -77.5q111 0 187.5 77t76.5 187v746h307v-746q0 -240 -165.5 -405.5t-405.5 -165.5t-405.5 166t-165.5 405zM283 1651l217 217l469 -469h-434z" />
<glyph unicode="&#xda;" d="M158 571v746h307v-746q0 -109 78 -186.5t186 -77.5q111 0 187.5 77t76.5 187v746h307v-746q0 -240 -165.5 -405.5t-405.5 -165.5t-405.5 166t-165.5 405zM467 1378h434l252 252l-217 217z" />
<glyph unicode="&#xdb;" d="M158 571v746h307v-746q0 -109 78 -186.5t186 -77.5q111 0 187.5 77t76.5 187v746h307v-746q0 -240 -165.5 -405.5t-405.5 -165.5t-405.5 166t-165.5 405zM289 1599l217 218h434l215 -215l-217 -218l-215 215l-217 -217z" />
<glyph unicode="&#xdc;" d="M158 571v746h307v-746q0 -109 78 -186.5t186 -77.5q111 0 187.5 77t76.5 187v746h307v-746q0 -240 -165.5 -405.5t-405.5 -165.5t-405.5 166t-165.5 405zM362 1507q0 66 45.5 111t110.5 45q66 0 111 -45t45 -111t-45 -110.5t-111 -44.5q-63 0 -109.5 46t-46.5 109z M772 1507q0 66 45 111t111 45t110.5 -45t44.5 -111t-45 -110.5t-110 -44.5q-63 0 -109.5 46t-46.5 109z" />
<glyph unicode="&#xdd;" d="M158 1012v305h307v-305q0 -109 78 -186.5t186 -77.5q111 0 187.5 76.5t76.5 187.5v305h307v-305q0 -195 -115.5 -347.5t-301.5 -201.5v-463h-308v463q-186 49 -301.5 201.5t-115.5 347.5zM467 1378h434l252 252l-217 217z" />
<glyph unicode="&#xde;" horiz-adv-x="2336" d="M143 885q0 150 103.5 254t253.5 106q109 193 299 303.5t411 110.5t411.5 -110.5t301.5 -303.5q150 -2 253 -106t103 -254q0 -137 -87 -237.5t-224 -119.5q-94 -231 -300 -369.5t-458 -138.5q-250 0 -456.5 139.5t-300.5 368.5q-135 20 -222.5 121t-87.5 236zM287 885 q0 -96 71.5 -161t167.5 -54q35 -139 121 -254q43 57 96 104q-106 43 -106 158q0 72 50 122t122 50t121 -50t49 -122v-19q113 39 231 39q121 0 234 -39q-2 10 -2 19q0 72 50 122t122 50t122 -50t50 -122q0 -115 -107 -158q53 -47 97 -104q86 115 120 256q96 -12 168 51.5 t72 161.5q0 90 -63.5 153.5t-153.5 63.5q-25 0 -51 -6q-80 207 -257 327.5t-401 120.5q-221 0 -399 -122t-258 -326q-25 6 -49 6q-90 0 -153.5 -63.5t-63.5 -153.5zM338 135l74 72q25 23 55 22q72 -2 76 -73q71 -6 71 -78q0 -31 -24 -55l-72 -72l-29 31l72 71q10 10 12 25 q0 35 -38 37q-6 -10 -15 -19l-74 -71l-28 30l71 70q12 12 13 25q0 37 -35 36q-16 0 -27 -10l-71 -70zM385 885q0 49 34 84t81 35q12 -1 24 -3q-18 -80 -18 -161q0 -37 4 -72q-51 -2 -88 32t-37 85zM590 -63q-6 33 10 59l53 86l37 -23l-55 -86q-8 -12 -6 -26q8 -35 43 -29 q14 4 22 16l56 86l34 -22l-55 -86q-23 -35 -72 -35q-55 0 -67 60zM657 678q0 -68 70 -68q68 0 68 68t-68 67q-70 0 -70 -67zM694 1108q0 86 84 86q37 0 61.5 -24.5t24.5 -61.5q0 -84 -86 -84q-35 0 -59.5 24.5t-24.5 59.5zM723 -170l39 94q20 49 69 49q56 0 74 -49 q10 -27 -2 -59l-37 -94l-39 16l39 94q4 14 0 27q-10 23 -32 22q-25 0 -35 -22l-39 -92zM768 770q0 -27 27 -27q26 0 26 27q0 25 -26 25q-27 0 -27 -25zM815 1268q0 57 57 57q58 0 58 -57t-58 -58q-57 0 -57 58zM823 330q172 -129 387 -129q217 0 387 129h-774zM901 -238 l49 218l41 -9l-24 -108l90 57l22 -35l-73 -47l51 -110l-51 12l-35 76l-17 -11l-12 -53zM905 1169q0 41 41 41t41 -41t-41 -41t-41 41zM987 1366q0 41 41 41t41 -41t-41 -41t-41 41zM1004 518q0 -47 47 -47q45 0 45 47q0 45 -45 45q-47 0 -47 -45zM1081 -184q0 37 29 62.5 t66 23.5q41 -2 67 -35l-2 -27l-82 -73q4 -2 10 -3q16 0 29 9q6 4 23 22l30 -28l-14 -17q-25 -29 -70 -26q-37 0 -61.5 27.5t-24.5 64.5zM1124 -186q0 -10 4 -21l66 62q-4 2 -20 4q-47 4 -50 -45zM1249 -100l41 6l8 -68q4 -35 41 -31q35 4 31 41l-8 66l41 4l8 -65 q8 -57 -47 -80l6 -39l-43 -4l-4 37q-57 8 -66 67zM1325 518q0 -47 47 -47q45 0 45 47q0 45 -45 45q-47 0 -47 -45zM1421 -109q0 35 41 48l86 26l13 -41l-86 -26q-14 -2 -11 -17q4 -12 17 -8l35 10q27 8 49 -8t22 -45q0 -43 -39 -53l-88 -25l-10 39l86 27q12 4 8 16t-16 8 l-35 -10q-14 -4 -20 -4q-51 0 -52 63zM1464 678q0 -68 68 -68q67 0 67 68t-67 67q-68 0 -68 -67zM1534 8l37 19l24 -47q23 33 62 32q49 0 69 -43l46 -90l-37 -18l-45 90q-6 12 -21 16q-47 16 -47 -35q0 -8 4 -14l45 -90l-37 -18zM1573 770q0 -27 26 -27q27 0 27 27 q0 25 -27 25t-26 -25zM1675 90q4 20 25 16q20 -4 16 -24t-24 -16t-17 24zM1696 47l35 23l100 -150l-35 -22zM1772 70q2 33 26.5 53t56.5 18q33 -2 54 -26l65 -78l-32 -27l-66 78q-10 10 -25 12q-35 2 -39 -32q0 -16 11 -27l63 -78l-31 -26l-65 77q-20 25 -18 56zM1896 180 q-4 39 23 67.5t66 31.5l20 -19l10 -108q16 12 19 34q0 8 -4 31l41 6l4 -20q8 -37 -17.5 -69t-64.5 -36q-37 -2 -64.5 21.5t-32.5 60.5zM1898 1001q12 2 25 3q47 0 81 -35t34 -84q0 -51 -36 -85t-87 -32q2 35 2 72q0 82 -19 161zM1937 184q4 -35 37 -43l-8 90 q-31 -14 -29 -47z" />
<glyph unicode="&#xdf;" horiz-adv-x="1146" d="M158 1161l153 154l385 2q186 0 319.5 -133t133.5 -320q0 -109 -51 -205q51 -96 51 -206q0 -190 -131 -321.5t-322 -131.5h-118v307h118q59 0 102.5 43t43.5 103q0 59 -41 100v213q41 43 41 98q0 59 -43 102.5t-103 43.5h-231l2 -1243h-307zM535 664q0 43 29.5 72.5 t72.5 29.5t72.5 -29.5t29.5 -72.5t-29.5 -73t-72.5 -30t-72.5 30t-29.5 73z" />
<glyph unicode="&#xe0;" horiz-adv-x="1454" d="M135 657q0 276 191.5 469t468.5 191l252 -2q170 -2 287.5 -119t117.5 -287l2 -909h-307v102q-162 -102 -352 -102q-276 0 -468 190.5t-192 466.5zM385 1651l217 217l469 -469h-434zM442 657q0 -147 102.5 -248.5t250.5 -101.5q145 0 247.5 102.5t102.5 247.5v252 q0 41 -29 70t-69 29l-252 2q-150 2 -251.5 -100.5t-101.5 -252.5z" />
<glyph unicode="&#xe1;" horiz-adv-x="1454" d="M135 657q0 276 191.5 469t468.5 191l252 -2q170 -2 287.5 -119t117.5 -287l2 -909h-307v102q-162 -102 -352 -102q-276 0 -468 190.5t-192 466.5zM442 657q0 -147 102.5 -248.5t250.5 -101.5q145 0 247.5 102.5t102.5 247.5v252q0 41 -29 70t-69 29l-252 2 q-150 2 -251.5 -100.5t-101.5 -252.5zM590 1378h434l252 252l-217 217z" />
<glyph unicode="&#xe2;" horiz-adv-x="1454" d="M135 657q0 276 191.5 469t468.5 191l252 -2q170 -2 287.5 -119t117.5 -287l2 -909h-307v102q-162 -102 -352 -102q-276 0 -468 190.5t-192 466.5zM289 1599l217 218h434l215 -215l-217 -218l-215 215l-217 -217zM442 657q0 -147 102.5 -248.5t250.5 -101.5 q145 0 247.5 102.5t102.5 247.5v252q0 41 -29 70t-69 29l-252 2q-150 2 -251.5 -100.5t-101.5 -252.5z" />
<glyph unicode="&#xe3;" horiz-adv-x="1454" d="M135 657q0 276 191.5 469t468.5 191l252 -2q170 -2 287.5 -119t117.5 -287l2 -909h-307v102q-162 -102 -352 -102q-276 0 -468 190.5t-192 466.5zM342 1384v109q0 139 98.5 237.5t237.5 98.5q164 0 268 -131q10 -16 31 -17q41 0 41 41v107h297v-107q0 -141 -98.5 -239.5 t-239.5 -98.5q-164 1 -268 134q-10 14 -31 14q-39 0 -39 -39v-109h-297zM442 657q0 -147 102.5 -248.5t250.5 -101.5q145 0 247.5 102.5t102.5 247.5v252q0 41 -29 70t-69 29l-252 2q-150 2 -251.5 -100.5t-101.5 -252.5z" />
<glyph unicode="&#xe4;" horiz-adv-x="1454" d="M135 657q0 276 191.5 469t468.5 191l252 -2q170 -2 287.5 -119t117.5 -287l2 -909h-307v102q-162 -102 -352 -102q-276 0 -468 190.5t-192 466.5zM362 1507q0 66 45.5 111t110.5 45q66 0 111 -45t45 -111t-45 -110.5t-111 -44.5q-63 0 -109.5 46t-46.5 109zM442 657 q0 -147 102.5 -248.5t250.5 -101.5q145 0 247.5 102.5t102.5 247.5v252q0 41 -29 70t-69 29l-252 2q-150 2 -251.5 -100.5t-101.5 -252.5zM772 1507q0 66 45 111t111 45t110.5 -45t44.5 -111t-45 -110.5t-110 -44.5q-63 0 -109.5 46t-46.5 109z" />
<glyph unicode="&#xe5;" horiz-adv-x="1454" d="M135 657q0 276 191.5 469t468.5 191l252 -2q170 -2 287.5 -119t117.5 -287l2 -909h-307v102q-162 -102 -352 -102q-276 0 -468 190.5t-192 466.5zM442 657q0 -147 102.5 -248.5t250.5 -101.5q145 0 247.5 102.5t102.5 247.5v252q0 41 -29 70t-69 29l-252 2 q-150 2 -251.5 -100.5t-101.5 -252.5zM600 1589q0 90 62.5 152.5t152.5 62.5t152.5 -62.5t62.5 -152.5t-62.5 -152.5t-152.5 -62.5q-88 0 -151.5 63.5t-63.5 151.5zM764 1589q0 -51 51 -51t51 51t-51 51t-51 -51z" />
<glyph unicode="&#xe6;" horiz-adv-x="2301" d="M135 657q0 276 191.5 469t468.5 191l252 -2q201 -2 323 -160q184 162 434 162q301 0 498 -230v-196l-573 -576q37 -8 75 -8q117 0 211 74q47 37 156 166l131 -121l2 -197q-193 -229 -500 -229q-195 0 -350 98v-98h-307v102q-162 -102 -352 -102q-276 0 -468 190.5 t-192 466.5zM442 657q0 -147 102.5 -248.5t250.5 -101.5q145 0 247.5 102.5t102.5 247.5v252q0 41 -29 70t-69 29l-252 2q-150 2 -251.5 -100.5t-101.5 -252.5zM1452 657q0 -77 35 -149l469 467q-72 35 -152 35q-147 0 -249.5 -102.5t-102.5 -250.5zM1452 657z" />
<glyph unicode="&#xe7;" horiz-adv-x="1452" d="M135 657q0 276 191.5 468t468.5 192q195 0 342 -98q102 -68 256 -246l-232 -201q-109 127 -155 164q-94 74 -211 74q-145 0 -249 -103.5t-104 -249.5q0 -147 102.5 -248.5t250.5 -101.5q117 0 211 74q47 37 155 166l232 -201l-99 -117q-139 -166 -342 -213v-34 q0 -152 -105.5 -257.5t-256.5 -105.5h-154v307h154q55 0 55 56v34q-176 39 -315 177q-195 193 -195 464z" />
<glyph unicode="&#xe8;" horiz-adv-x="1292" d="M135 657q0 276 191.5 468t468.5 192q301 0 497 -230v-196l-573 -576q37 -8 76 -8q117 0 211 74q47 37 155 166l131 -121l2 -197q-193 -229 -499 -229q-276 0 -468 190.5t-192 466.5zM324 1651l217 217l469 -469h-434zM442 657q0 -78 35 -149l469 467q-72 35 -151 35 q-145 0 -249 -103.5t-104 -249.5z" />
<glyph unicode="&#xe9;" horiz-adv-x="1292" d="M135 657q0 276 191.5 468t468.5 192q301 0 497 -230v-196l-573 -576q37 -8 76 -8q117 0 211 74q47 37 155 166l131 -121l2 -197q-193 -229 -499 -229q-276 0 -468 190.5t-192 466.5zM385 1378h434l252 252l-217 217zM442 657q0 -78 35 -149l469 467q-72 35 -151 35 q-145 0 -249 -103.5t-104 -249.5z" />
<glyph unicode="&#xea;" horiz-adv-x="1292" d="M135 657q0 276 191.5 468t468.5 192q301 0 497 -230v-196l-573 -576q37 -8 76 -8q117 0 211 74q47 37 155 166l131 -121l2 -197q-193 -229 -499 -229q-276 0 -468 190.5t-192 466.5zM289 1599l217 218h434l215 -215l-217 -218l-215 215l-217 -217zM442 657q0 -78 35 -149 l469 467q-72 35 -151 35q-145 0 -249 -103.5t-104 -249.5z" />
<glyph unicode="&#xeb;" horiz-adv-x="1292" d="M135 657q0 276 191.5 468t468.5 192q301 0 497 -230v-196l-573 -576q37 -8 76 -8q117 0 211 74q47 37 155 166l131 -121l2 -197q-193 -229 -499 -229q-276 0 -468 190.5t-192 466.5zM403 1507q0 66 45.5 111t110.5 45q66 0 111 -45t45 -111t-45 -110.5t-111 -44.5 q-63 0 -109.5 46t-46.5 109zM442 657q0 -78 35 -149l469 467q-72 35 -151 35q-145 0 -249 -103.5t-104 -249.5zM813 1507q0 66 45 111t111 45t110.5 -45t44.5 -111t-45 -110.5t-110 -44.5q-63 0 -109.5 46t-46.5 109z" />
<glyph unicode="&#xec;" horiz-adv-x="466" d="M-127 1651l217 217l469 -469h-434zM158 0v1317h307v-1317h-307z" />
<glyph unicode="&#xed;" horiz-adv-x="466" d="M78 1378h434l252 252l-217 217zM158 0v1317h307v-1317h-307z" />
<glyph unicode="&#xee;" horiz-adv-x="466" d="M-121 1599l217 218h434l215 -215l-217 -218l-215 215l-217 -217zM158 0v1317h307v-1317h-307z" />
<glyph unicode="&#xef;" horiz-adv-x="466" d="M-48 1507q0 66 45.5 111t110.5 45q66 0 111 -45t45 -111t-45 -110.5t-111 -44.5q-63 0 -109.5 46t-46.5 109zM158 0v1317h307v-1317h-307zM362 1507q0 66 45 111t111 45t110.5 -45t44.5 -111t-45 -110.5t-110 -44.5q-63 0 -109.5 46t-46.5 109z" />
<glyph unicode="&#xf0;" horiz-adv-x="2336" d="M164 864q0 150 103.5 254.5t252.5 106.5q109 193 299.5 303t411.5 110t411.5 -110.5t301.5 -302.5q150 -2 253 -106.5t103 -254.5q0 -137 -87 -237.5t-224 -118.5q-94 -231 -300 -369.5t-458 -138.5q-250 0 -457 139.5t-301 368.5q-135 20 -222 120.5t-87 235.5zM307 864 q0 -96 72 -160.5t168 -54.5q35 -139 121 -254q43 57 96 105q-106 43 -107 157q0 72 50.5 122t121.5 50q72 0 121 -50t49 -122v-18q113 39 232 39q121 0 233 -39q-2 10 -2 18q0 72 50.5 122t121.5 50q72 0 122 -50t50 -122q0 -115 -106 -157q53 -47 96 -105q86 115 121 256 q96 -12 168 51.5t72 161.5q0 90 -63.5 153.5t-154.5 63.5q-25 0 -51 -6q-80 207 -257 328t-400 121q-221 0 -399.5 -122t-258.5 -327q-25 6 -49 6q-90 0 -153.5 -63.5t-63.5 -153.5zM406 864q0 49 33.5 84t80.5 35q13 0 25 -2q-18 -80 -19 -162q0 -37 4 -71 q-51 -2 -87.5 31.5t-36.5 84.5zM678 657q0 -68 70 -67q67 -1 67 67t-67 68q-70 0 -70 -68zM715 1087q0 86 84 87q37 0 61.5 -25t24.5 -62q0 -84 -86 -83q-35 0 -59.5 24.5t-24.5 58.5zM788 750q0 -27 27 -27t27 27q0 25 -27 24q-27 0 -27 -24zM836 1247q0 57 57 58 q57 -1 57 -58t-57 -57t-57 57zM844 309q172 -129 387 -129q217 0 387 129h-774zM926 1149q0 41 41 41t41 -41t-41 -41t-41 41zM1008 1346q0 41 41 40q41 1 41 -40t-41 -41t-41 41zM1024 498q0 -47 47 -47q45 0 45 47q0 45 -45 45q-47 0 -47 -45zM1346 498q0 -47 47 -47 q45 0 45 47q0 45 -45 45q-47 0 -47 -45zM1485 657q0 -68 67 -67q68 -1 68 67t-68 68t-67 -68zM1593 750q0 -27 27 -27t27 27q0 25 -27 24q-27 0 -27 -24zM1919 981q12 2 25 2q47 0 80.5 -35t33.5 -84q0 -51 -35.5 -85t-87.5 -31q2 35 2 71q0 82 -18 162z" />
<glyph unicode="&#xf1;" horiz-adv-x="1302" d="M158 0v745q0 240 165.5 406t405.5 166t405.5 -166t165.5 -406v-745h-307v745q0 111 -76.5 188t-187.5 77q-109 0 -186.5 -78t-77.5 -187v-745h-307zM260 1384v109q0 139 98.5 237.5t237.5 98.5q164 0 268 -131q10 -16 31 -17q41 0 41 41v107h297v-107 q0 -141 -98.5 -239.5t-239.5 -98.5q-164 1 -268 134q-10 14 -31 14q-39 0 -39 -39v-109h-297z" />
<glyph unicode="&#xf2;" horiz-adv-x="1452" d="M135 657q0 276 191.5 468t468.5 192q276 0 466.5 -192t190.5 -468t-190.5 -466.5t-466.5 -190.5t-468 190.5t-192 466.5zM385 1651l217 217l469 -469h-434zM442 657q0 -147 102.5 -248.5t250.5 -101.5q145 0 247.5 102.5t102.5 247.5q0 147 -101.5 250t-248.5 103 q-145 0 -249 -103.5t-104 -249.5z" />
<glyph unicode="&#xf3;" horiz-adv-x="1452" d="M135 657q0 276 191.5 468t468.5 192q276 0 466.5 -192t190.5 -468t-190.5 -466.5t-466.5 -190.5t-468 190.5t-192 466.5zM442 657q0 -147 102.5 -248.5t250.5 -101.5q145 0 247.5 102.5t102.5 247.5q0 147 -101.5 250t-248.5 103q-145 0 -249 -103.5t-104 -249.5z M467 1378h434l252 252l-217 217z" />
<glyph unicode="&#xf4;" horiz-adv-x="1452" d="M135 657q0 276 191.5 468t468.5 192q276 0 466.5 -192t190.5 -468t-190.5 -466.5t-466.5 -190.5t-468 190.5t-192 466.5zM350 1599l217 218h434l215 -215l-217 -218l-215 215l-217 -217zM442 657q0 -147 102.5 -248.5t250.5 -101.5q145 0 247.5 102.5t102.5 247.5 q0 147 -101.5 250t-248.5 103q-145 0 -249 -103.5t-104 -249.5z" />
<glyph unicode="&#xf5;" horiz-adv-x="1452" d="M135 657q0 276 191.5 468t468.5 192q276 0 466.5 -192t190.5 -468t-190.5 -466.5t-466.5 -190.5t-468 190.5t-192 466.5zM301 1384v109q0 139 98.5 237.5t237.5 98.5q164 0 268 -131q10 -16 31 -17q41 0 41 41v107h297v-107q0 -141 -98.5 -239.5t-239.5 -98.5 q-164 1 -268 134q-10 14 -31 14q-39 0 -39 -39v-109h-297zM442 657q0 -147 102.5 -248.5t250.5 -101.5q145 0 247.5 102.5t102.5 247.5q0 147 -101.5 250t-248.5 103q-145 0 -249 -103.5t-104 -249.5z" />
<glyph unicode="&#xf6;" horiz-adv-x="1452" d="M135 657q0 276 191.5 468t468.5 192q276 0 466.5 -192t190.5 -468t-190.5 -466.5t-466.5 -190.5t-468 190.5t-192 466.5zM423 1507q0 66 45.5 111t110.5 45q66 0 111 -45t45 -111t-45 -110.5t-111 -44.5q-63 0 -109.5 46t-46.5 109zM442 657q0 -147 102.5 -248.5 t250.5 -101.5q145 0 247.5 102.5t102.5 247.5q0 147 -101.5 250t-248.5 103q-145 0 -249 -103.5t-104 -249.5zM833 1507q0 66 45 111t111 45t110.5 -45t44.5 -111t-45 -110.5t-110 -44.5q-63 0 -109.5 46t-46.5 109z" />
<glyph unicode="&#xf7;" horiz-adv-x="2336" d="M143 885q0 150 103.5 254t253.5 106q109 193 299 303.5t411 110.5t411.5 -110.5t301.5 -303.5q150 -2 253 -106t103 -254q0 -137 -87 -237.5t-224 -119.5q-94 -231 -300 -369.5t-458 -138.5q-250 0 -456.5 139.5t-300.5 368.5q-135 20 -222.5 121t-87.5 236zM287 885 q0 -96 71.5 -161t167.5 -54q35 -139 121 -254q43 57 96 104q-106 43 -106 158q0 72 50 122t122 50t121 -50t49 -122v-19q113 39 231 39q121 0 234 -39q-2 10 -2 19q0 72 50 122t122 50t122 -50t50 -122q0 -115 -107 -158q53 -47 97 -104q86 115 120 256q96 -12 168 51.5 t72 161.5q0 90 -63.5 153.5t-153.5 63.5q-25 0 -51 -6q-80 207 -257 327.5t-401 120.5q-221 0 -399 -122t-258 -326q-25 6 -49 6q-90 0 -153.5 -63.5t-63.5 -153.5zM338 135l74 72q25 23 55 22q72 -2 76 -73q71 -6 71 -78q0 -31 -24 -55l-72 -72l-29 31l72 71q10 10 12 25 q0 35 -38 37q-6 -10 -15 -19l-74 -71l-28 30l71 70q12 12 13 25q0 37 -35 36q-16 0 -27 -10l-71 -70zM385 885q0 49 34 84t81 35q12 -1 24 -3q-18 -80 -18 -161q0 -37 4 -72q-51 -2 -88 32t-37 85zM590 -63q-6 33 10 59l53 86l37 -23l-55 -86q-8 -12 -6 -26q8 -35 43 -29 q14 4 22 16l56 86l34 -22l-55 -86q-23 -35 -72 -35q-55 0 -67 60zM657 678q0 -68 70 -68q68 0 68 68t-68 67q-70 0 -70 -67zM694 1108q0 86 84 86q37 0 61.5 -24.5t24.5 -61.5q0 -84 -86 -84q-35 0 -59.5 24.5t-24.5 59.5zM723 -170l39 94q20 49 69 49q56 0 74 -49 q10 -27 -2 -59l-37 -94l-39 16l39 94q4 14 0 27q-10 23 -32 22q-25 0 -35 -22l-39 -92zM768 770q0 -27 27 -27q26 0 26 27q0 25 -26 25q-27 0 -27 -25zM815 1268q0 57 57 57q58 0 58 -57t-58 -58q-57 0 -57 58zM823 330q172 -129 387 -129q217 0 387 129h-774zM901 -238 l49 218l41 -9l-24 -108l90 57l22 -35l-73 -47l51 -110l-51 12l-35 76l-17 -11l-12 -53zM905 1169q0 41 41 41t41 -41t-41 -41t-41 41zM987 1366q0 41 41 41t41 -41t-41 -41t-41 41zM1004 518q0 -47 47 -47q45 0 45 47q0 45 -45 45q-47 0 -47 -45zM1081 -184q0 37 29 62.5 t66 23.5q41 -2 67 -35l-2 -27l-82 -73q4 -2 10 -3q16 0 29 9q6 4 23 22l30 -28l-14 -17q-25 -29 -70 -26q-37 0 -61.5 27.5t-24.5 64.5zM1124 -186q0 -10 4 -21l66 62q-4 2 -20 4q-47 4 -50 -45zM1249 -100l41 6l8 -68q4 -35 41 -31q35 4 31 41l-8 66l41 4l8 -65 q8 -57 -47 -80l6 -39l-43 -4l-4 37q-57 8 -66 67zM1325 518q0 -47 47 -47q45 0 45 47q0 45 -45 45q-47 0 -47 -45zM1421 -109q0 35 41 48l86 26l13 -41l-86 -26q-14 -2 -11 -17q4 -12 17 -8l35 10q27 8 49 -8t22 -45q0 -43 -39 -53l-88 -25l-10 39l86 27q12 4 8 16t-16 8 l-35 -10q-14 -4 -20 -4q-51 0 -52 63zM1464 678q0 -68 68 -68q67 0 67 68t-67 67q-68 0 -68 -67zM1534 8l37 19l24 -47q23 33 62 32q49 0 69 -43l46 -90l-37 -18l-45 90q-6 12 -21 16q-47 16 -47 -35q0 -8 4 -14l45 -90l-37 -18zM1573 770q0 -27 26 -27q27 0 27 27 q0 25 -27 25t-26 -25zM1675 90q4 20 25 16q20 -4 16 -24t-24 -16t-17 24zM1696 47l35 23l100 -150l-35 -22zM1772 70q2 33 26.5 53t56.5 18q33 -2 54 -26l65 -78l-32 -27l-66 78q-10 10 -25 12q-35 2 -39 -32q0 -16 11 -27l63 -78l-31 -26l-65 77q-20 25 -18 56zM1896 180 q-4 39 23 67.5t66 31.5l20 -19l10 -108q16 12 19 34q0 8 -4 31l41 6l4 -20q8 -37 -17.5 -69t-64.5 -36q-37 -2 -64.5 21.5t-32.5 60.5zM1898 1001q12 2 25 3q47 0 81 -35t34 -84q0 -51 -36 -85t-87 -32q2 35 2 72q0 82 -19 161zM1937 184q4 -35 37 -43l-8 90 q-31 -14 -29 -47z" />
<glyph unicode="&#xf8;" horiz-adv-x="1452" d="M135 657q0 276 191.5 468t468.5 192q276 0 466.5 -192t190.5 -468t-190.5 -466.5t-466.5 -190.5t-468 190.5t-192 466.5zM442 657q1 -61 19 -114l450 448q-53 18 -116 19q-145 0 -249 -103.5t-104 -249.5zM676 326q55 -18 119 -19q145 0 247.5 102.5t102.5 247.5 q-1 60 -19 113z" />
<glyph unicode="&#xf9;" d="M158 571v746h307v-746q0 -109 78 -186.5t186 -77.5q111 0 187.5 77t76.5 187v746h307v-746q0 -240 -165.5 -405.5t-405.5 -165.5t-405.5 166t-165.5 405zM283 1651l217 217l469 -469h-434z" />
<glyph unicode="&#xfa;" d="M158 571v746h307v-746q0 -109 78 -186.5t186 -77.5q111 0 187.5 77t76.5 187v746h307v-746q0 -240 -165.5 -405.5t-405.5 -165.5t-405.5 166t-165.5 405zM488 1378h434l252 252l-217 217z" />
<glyph unicode="&#xfb;" d="M158 571v746h307v-746q0 -109 78 -186.5t186 -77.5q111 0 187.5 77t76.5 187v746h307v-746q0 -240 -165.5 -405.5t-405.5 -165.5t-405.5 166t-165.5 405zM289 1599l217 218h434l215 -215l-217 -218l-215 215l-217 -217z" />
<glyph unicode="&#xfc;" d="M158 571v746h307v-746q0 -109 78 -186.5t186 -77.5q111 0 187.5 77t76.5 187v746h307v-746q0 -240 -165.5 -405.5t-405.5 -165.5t-405.5 166t-165.5 405zM362 1507q0 66 45.5 111t110.5 45q66 0 111 -45t45 -111t-45 -110.5t-111 -44.5q-63 0 -109.5 46t-46.5 109z M772 1507q0 66 45 111t111 45t110.5 -45t44.5 -111t-45 -110.5t-110 -44.5q-63 0 -109.5 46t-46.5 109z" />
<glyph unicode="&#xfe;" horiz-adv-x="2336" d="M164 864q0 150 103.5 254.5t252.5 106.5q109 193 299.5 303t411.5 110t411.5 -110.5t301.5 -302.5q150 -2 253 -106.5t103 -254.5q0 -137 -87 -237.5t-224 -118.5q-94 -231 -300 -369.5t-458 -138.5q-250 0 -457 139.5t-301 368.5q-135 20 -222 120.5t-87 235.5zM307 864 q0 -96 72 -160.5t168 -54.5q35 -139 121 -254q43 57 96 105q-106 43 -107 157q0 72 50.5 122t121.5 50q72 0 121 -50t49 -122v-18q113 39 232 39q121 0 233 -39q-2 10 -2 18q0 72 50.5 122t121.5 50q72 0 122 -50t50 -122q0 -115 -106 -157q53 -47 96 -105q86 115 121 256 q96 -12 168 51.5t72 161.5q0 90 -63.5 153.5t-154.5 63.5q-25 0 -51 -6q-80 207 -257 328t-400 121q-221 0 -399.5 -122t-258.5 -327q-25 6 -49 6q-90 0 -153.5 -63.5t-63.5 -153.5zM406 864q0 49 33.5 84t80.5 35q13 0 25 -2q-18 -80 -19 -162q0 -37 4 -71 q-51 -2 -87.5 31.5t-36.5 84.5zM678 657q0 -68 70 -67q67 -1 67 67t-67 68q-70 0 -70 -68zM715 1087q0 86 84 87q37 0 61.5 -25t24.5 -62q0 -84 -86 -83q-35 0 -59.5 24.5t-24.5 58.5zM788 750q0 -27 27 -27t27 27q0 25 -27 24q-27 0 -27 -24zM836 1247q0 57 57 58 q57 -1 57 -58t-57 -57t-57 57zM844 309q172 -129 387 -129q217 0 387 129h-774zM926 1149q0 41 41 41t41 -41t-41 -41t-41 41zM1008 1346q0 41 41 40q41 1 41 -40t-41 -41t-41 41zM1024 498q0 -47 47 -47q45 0 45 47q0 45 -45 45q-47 0 -47 -45zM1346 498q0 -47 47 -47 q45 0 45 47q0 45 -45 45q-47 0 -47 -45zM1485 657q0 -68 67 -67q68 -1 68 67t-68 68t-67 -68zM1593 750q0 -27 27 -27t27 27q0 25 -27 24q-27 0 -27 -24zM1919 981q12 2 25 2q47 0 80.5 -35t33.5 -84q0 -51 -35.5 -85t-87.5 -31q2 35 2 71q0 82 -18 162z" />
<glyph unicode="&#xff;" d="M158 827v490h307v-490q0 -109 78 -186.5t186 -77.5q111 0 187.5 77t76.5 187v490h307v-490q0 -195 -115.5 -347t-301.5 -201v-279h-308v279q-186 49 -301.5 201.5t-115.5 346.5zM362 1507q0 66 45.5 111t110.5 45q66 0 111 -45t45 -111t-45 -110.5t-111 -44.5 q-63 0 -109.5 46t-46.5 109zM772 1507q0 66 45 111t111 45t110.5 -45t44.5 -111t-45 -110.5t-110 -44.5q-63 0 -109.5 46t-46.5 109z" />
<glyph unicode="&#x152;" horiz-adv-x="2170" d="M135 657q0 276 191.5 468t468.5 192q233 0 409 -141q123 141 307 141h668v-307h-668q-41 0 -69.5 -29t-28.5 -70t28.5 -69.5t69.5 -28.5h668v-307h-668q-41 0 -69.5 -28.5t-28.5 -69.5t28.5 -71t69.5 -30h668v-307h-668q-184 0 -307 141q-176 -141 -409 -141 q-276 0 -468 190.5t-192 466.5zM442 657q0 -147 102.5 -248.5t250.5 -101.5q145 0 247.5 102.5t102.5 247.5q0 147 -101.5 250t-248.5 103q-145 0 -249 -103.5t-104 -249.5z" />
<glyph unicode="&#x153;" horiz-adv-x="2304" d="M135 657q0 276 191.5 468t468.5 192q303 0 503 -236q203 236 506 236q301 0 498 -230v-196l-573 -576q37 -8 75 -8q117 0 211 74q47 37 156 166l131 -121l2 -197q-193 -229 -500 -229q-303 0 -506 236q-201 -236 -503 -236q-276 0 -468 190.5t-192 466.5zM442 657 q0 -147 102.5 -248.5t250.5 -101.5q145 0 247.5 102.5t102.5 247.5q0 147 -101.5 250t-248.5 103q-145 0 -249 -103.5t-104 -249.5zM1452 657q0 -78 35 -149l469 467q-72 35 -152 35q-145 0 -248.5 -103.5t-103.5 -249.5z" />
<glyph unicode="&#x178;" d="M158 1012v305h307v-305q0 -109 78 -186.5t186 -77.5q111 0 187.5 76.5t76.5 187.5v305h307v-305q0 -195 -115.5 -347.5t-301.5 -201.5v-463h-308v463q-186 49 -301.5 201.5t-115.5 347.5zM362 1507q0 66 45.5 111t110.5 45q66 0 111 -45t45 -111t-45 -110.5t-111 -44.5 q-63 0 -109.5 46t-46.5 109zM772 1507q0 66 45 111t111 45t110.5 -45t44.5 -111t-45 -110.5t-110 -44.5q-63 0 -109.5 46t-46.5 109z" />
<glyph unicode="&#x2c6;" horiz-adv-x="1488" d="M289 1599l217 218h434l215 -215l-217 -218l-215 215l-217 -217z" />
<glyph unicode="&#x2dc;" horiz-adv-x="1228" d="M219 1384v109q0 139 98.5 237.5t237.5 98.5q164 0 268 -131q10 -16 31 -17q41 0 41 41v107h297v-107q0 -141 -98.5 -239.5t-239.5 -98.5q-164 1 -268 134q-10 14 -31 14q-39 0 -39 -39v-109h-297z" />
<glyph unicode="&#x2000;" horiz-adv-x="934" />
<glyph unicode="&#x2001;" horiz-adv-x="1868" />
<glyph unicode="&#x2002;" horiz-adv-x="934" />
<glyph unicode="&#x2003;" horiz-adv-x="1868" />
<glyph unicode="&#x2004;" horiz-adv-x="622" />
<glyph unicode="&#x2005;" horiz-adv-x="467" />
<glyph unicode="&#x2006;" horiz-adv-x="311" />
<glyph unicode="&#x2007;" horiz-adv-x="311" />
<glyph unicode="&#x2008;" horiz-adv-x="233" />
<glyph unicode="&#x2009;" horiz-adv-x="373" />
<glyph unicode="&#x200a;" horiz-adv-x="103" />
<glyph unicode="&#x2010;" horiz-adv-x="466" d="M158 770q0 66 45 111t110 45q66 0 111 -45t45 -111t-45 -111t-111 -45q-63 0 -109 46.5t-46 109.5z" />
<glyph unicode="&#x2011;" horiz-adv-x="466" d="M158 770q0 66 45 111t110 45q66 0 111 -45t45 -111t-45 -111t-111 -45q-63 0 -109 46.5t-46 109.5z" />
<glyph unicode="&#x2012;" horiz-adv-x="466" d="M158 770q0 66 45 111t110 45q66 0 111 -45t45 -111t-45 -111t-111 -45q-63 0 -109 46.5t-46 109.5z" />
<glyph unicode="&#x2013;" horiz-adv-x="1067" d="M158 618v308h907v-308h-907z" />
<glyph unicode="&#x2014;" horiz-adv-x="1474" d="M158 618v308h1317v-308h-1317z" />
<glyph unicode="&#x2018;" horiz-adv-x="466" d="M162 807v508h307v-508h-307z" />
<glyph unicode="&#x2019;" horiz-adv-x="466" d="M162 807v508h307v-508h-307z" />
<glyph unicode="&#x201a;" horiz-adv-x="2336" d="M164 864q0 150 103.5 254.5t252.5 106.5q109 193 299.5 303t411.5 110t411.5 -110.5t301.5 -302.5q150 -2 253 -106.5t103 -254.5q0 -137 -87 -237.5t-224 -118.5q-94 -231 -300 -369.5t-458 -138.5q-250 0 -457 139.5t-301 368.5q-135 20 -222 120.5t-87 235.5zM307 864 q0 -96 72 -160.5t168 -54.5q35 -139 121 -254q43 57 96 105q-106 43 -107 157q0 72 50.5 122t121.5 50q72 0 121 -50t49 -122v-18q113 39 232 39q121 0 233 -39q-2 10 -2 18q0 72 50.5 122t121.5 50q72 0 122 -50t50 -122q0 -115 -106 -157q53 -47 96 -105q86 115 121 256 q96 -12 168 51.5t72 161.5q0 90 -63.5 153.5t-154.5 63.5q-25 0 -51 -6q-80 207 -257 328t-400 121q-221 0 -399.5 -122t-258.5 -327q-25 6 -49 6q-90 0 -153.5 -63.5t-63.5 -153.5zM406 864q0 49 33.5 84t80.5 35q13 0 25 -2q-18 -80 -19 -162q0 -37 4 -71 q-51 -2 -87.5 31.5t-36.5 84.5zM678 657q0 -68 70 -67q67 -1 67 67t-67 68q-70 0 -70 -68zM715 1087q0 86 84 87q37 0 61.5 -25t24.5 -62q0 -84 -86 -83q-35 0 -59.5 24.5t-24.5 58.5zM788 750q0 -27 27 -27t27 27q0 25 -27 24q-27 0 -27 -24zM836 1247q0 57 57 58 q57 -1 57 -58t-57 -57t-57 57zM844 309q172 -129 387 -129q217 0 387 129h-774zM926 1149q0 41 41 41t41 -41t-41 -41t-41 41zM1008 1346q0 41 41 40q41 1 41 -40t-41 -41t-41 41zM1024 498q0 -47 47 -47q45 0 45 47q0 45 -45 45q-47 0 -47 -45zM1346 498q0 -47 47 -47 q45 0 45 47q0 45 -45 45q-47 0 -47 -45zM1485 657q0 -68 67 -67q68 -1 68 67t-68 68t-67 -68zM1593 750q0 -27 27 -27t27 27q0 25 -27 24q-27 0 -27 -24zM1919 981q12 2 25 2q47 0 80.5 -35t33.5 -84q0 -51 -35.5 -85t-87.5 -31q2 35 2 71q0 82 -18 162z" />
<glyph unicode="&#x201c;" horiz-adv-x="878" d="M162 807v508h307v-508h-307zM571 807v508h308v-508h-308z" />
<glyph unicode="&#x201d;" horiz-adv-x="878" d="M162 807v508h307v-508h-307zM571 807v508h308v-508h-308z" />
<glyph unicode="&#x201e;" horiz-adv-x="2336" d="M164 864q0 150 103.5 254.5t252.5 106.5q109 193 299.5 303t411.5 110t411.5 -110.5t301.5 -302.5q150 -2 253 -106.5t103 -254.5q0 -137 -87 -237.5t-224 -118.5q-94 -231 -300 -369.5t-458 -138.5q-250 0 -457 139.5t-301 368.5q-135 20 -222 120.5t-87 235.5zM307 864 q0 -96 72 -160.5t168 -54.5q35 -139 121 -254q43 57 96 105q-106 43 -107 157q0 72 50.5 122t121.5 50q72 0 121 -50t49 -122v-18q113 39 232 39q121 0 233 -39q-2 10 -2 18q0 72 50.5 122t121.5 50q72 0 122 -50t50 -122q0 -115 -106 -157q53 -47 96 -105q86 115 121 256 q96 -12 168 51.5t72 161.5q0 90 -63.5 153.5t-154.5 63.5q-25 0 -51 -6q-80 207 -257 328t-400 121q-221 0 -399.5 -122t-258.5 -327q-25 6 -49 6q-90 0 -153.5 -63.5t-63.5 -153.5zM406 864q0 49 33.5 84t80.5 35q13 0 25 -2q-18 -80 -19 -162q0 -37 4 -71 q-51 -2 -87.5 31.5t-36.5 84.5zM678 657q0 -68 70 -67q67 -1 67 67t-67 68q-70 0 -70 -68zM715 1087q0 86 84 87q37 0 61.5 -25t24.5 -62q0 -84 -86 -83q-35 0 -59.5 24.5t-24.5 58.5zM788 750q0 -27 27 -27t27 27q0 25 -27 24q-27 0 -27 -24zM836 1247q0 57 57 58 q57 -1 57 -58t-57 -57t-57 57zM844 309q172 -129 387 -129q217 0 387 129h-774zM926 1149q0 41 41 41t41 -41t-41 -41t-41 41zM1008 1346q0 41 41 40q41 1 41 -40t-41 -41t-41 41zM1024 498q0 -47 47 -47q45 0 45 47q0 45 -45 45q-47 0 -47 -45zM1346 498q0 -47 47 -47 q45 0 45 47q0 45 -45 45q-47 0 -47 -45zM1485 657q0 -68 67 -67q68 -1 68 67t-68 68t-67 -68zM1593 750q0 -27 27 -27t27 27q0 25 -27 24q-27 0 -27 -24zM1919 981q12 2 25 2q47 0 80.5 -35t33.5 -84q0 -51 -35.5 -85t-87.5 -31q2 35 2 71q0 82 -18 162z" />
<glyph unicode="&#x2022;" horiz-adv-x="802" d="M199 688q0 125 87 212t212 87t212 -87t87 -212t-87 -212t-212 -87t-212 87t-87 212z" />
<glyph unicode="&#x2026;" horiz-adv-x="1462" d="M158 156q0 66 45 110.5t110 44.5q66 0 111 -44.5t45 -110.5t-45 -111t-111 -45q-63 0 -109 46t-46 110zM608 156q0 66 45 110.5t111 44.5t111 -44.5t45 -110.5t-45.5 -111t-110.5 -45q-63 0 -109.5 46t-46.5 110zM1059 156q0 66 45 110.5t110 44.5q66 0 111 -44.5 t45 -110.5t-45 -111t-111 -45q-63 0 -109 46t-46 110z" />
<glyph unicode="&#x202f;" horiz-adv-x="373" />
<glyph unicode="&#x2039;" horiz-adv-x="595" d="M160 457v434l215 215l217 -217l-215 -215l217 -217l-217 -217z" />
<glyph unicode="&#x203a;" horiz-adv-x="595" d="M160 457l217 217l-217 215l217 217l217 -215v-434l-217 -217z" />
<glyph unicode="&#x205f;" horiz-adv-x="467" />
<glyph unicode="&#x2122;" horiz-adv-x="1398" d="M160 1102v213h442v-213h-115v-365h-213v365h-114zM614 737v320q0 109 74 183.5t182 74.5q74 0 136 -39q61 39 135 39q109 0 182.5 -75t73.5 -183v-320h-213v320q0 45 -43 45q-8 0 -17 -4q4 -20 4 -41v-320h-213v320q0 45 -45 45q-43 0 -43 -45v-320h-213z" />
<glyph unicode="&#x25fc;" horiz-adv-x="1320" d="M0 0v1321h1321v-1321h-1321z" />
</font>
</defs>
</svg>
