<?xml version="1.0" standalone="no"?>
<!DOCTYPE svg PUBLIC "-//W3C//DTD SVG 20010904//EN"
 "http://www.w3.org/TR/2001/REC-SVG-20010904/DTD/svg10.dtd">
<svg version="1.0" xmlns="http://www.w3.org/2000/svg"
 width="320.000000pt" height="320.000000pt" viewBox="0 0 320.000000 320.000000"
 preserveAspectRatio="xMidYMid meet">
<metadata>
Created by potrace 1.11, written by Peter Selinger 2001-2013
</metadata>
<g transform="translate(0.000000,320.000000) scale(0.100000,-0.100000)"
fill="#000000" stroke="none">
<path d="M214 3176 c-126 -60 -179 -203 -119 -322 14 -27 68 -94 121 -149 358
-372 478 -496 523 -544 l51 -53 -29 -37 c-44 -56 -117 -188 -151 -273 -136
-344 -122 -729 40 -1063 103 -213 294 -424 490 -542 139 -84 323 -151 485
-177 87 -14 370 -17 391 -4 5 3 26 9 47 12 120 19 197 51 240 100 92 105 83
258 -22 347 -71 62 -140 72 -271 40 -160 -39 -361 -20 -520 49 -165 72 -336
239 -404 395 -10 22 -22 47 -26 57 -9 16 -37 119 -47 168 -3 14 -6 63 -7 110
-4 146 30 289 96 409 148 267 415 427 717 429 224 1 425 -82 582 -239 153
-155 226 -328 243 -580 7 -107 52 -178 137 -219 116 -55 225 -23 315 92 26 33
37 109 30 213 -3 57 -8 110 -11 117 -2 7 -6 27 -8 43 -16 104 -80 282 -142
388 -71 123 -123 193 -208 281 -253 260 -594 400 -951 391 -221 -5 -372 -42
-571 -140 l-81 -41 -48 51 c-469 491 -648 672 -685 690 -56 28 -148 28 -207 1z"/>
<path d="M1761 1688 c-26 -7 -92 -67 -268 -245 -128 -129 -240 -247 -247 -261
-52 -102 11 -224 122 -239 75 -10 103 8 283 189 l169 169 82 -72 c46 -40 110
-96 143 -125 111 -97 120 -104 152 -119 43 -21 89 -19 139 6 97 46 120 173 47
255 -16 19 -95 89 -263 234 -35 30 -95 83 -134 118 -104 93 -149 111 -225 90z"/>
</g>
</svg>
