<?xml version="1.0" standalone="no"?>
<!DOCTYPE svg PUBLIC "-//W3C//DTD SVG 20010904//EN"
 "http://www.w3.org/TR/2001/REC-SVG-20010904/DTD/svg10.dtd">
<svg version="1.0" xmlns="http://www.w3.org/2000/svg"
 width="313.000000pt" height="313.000000pt" viewBox="0 0 313.000000 313.000000"
 preserveAspectRatio="xMidYMid meet">
<metadata>
Created by potrace 1.11, written by Peter Selinger 2001-2013
</metadata>
<g transform="translate(0.000000,313.000000) scale(0.100000,-0.100000)"
fill="#000000" stroke="none">
<path d="M202 3119 c-49 -15 -118 -89 -132 -141 -14 -48 -7 -115 14 -156 8
-15 56 -70 108 -124 118 -122 454 -470 536 -556 59 -62 62 -66 47 -86 -176
-238 -261 -481 -264 -756 -2 -152 10 -252 47 -380 106 -365 376 -669 729 -818
73 -31 203 -71 258 -79 17 -2 47 -8 67 -13 42 -9 326 -5 377 5 201 40 265 78
295 177 23 76 9 141 -43 201 -62 70 -130 85 -251 54 -77 -19 -284 -28 -345
-15 -16 4 -41 9 -55 12 -295 65 -542 302 -631 607 -25 86 -35 295 -18 369 6
25 13 56 15 70 10 52 74 192 117 257 42 64 139 167 197 211 82 61 201 117 315
148 71 18 251 26 321 13 27 -5 60 -11 72 -14 47 -8 128 -38 195 -72 199 -99
356 -285 425 -503 25 -79 30 -111 37 -220 7 -100 32 -160 85 -201 101 -80 242
-53 312 58 20 34 23 50 22 143 -1 115 -5 152 -28 251 -110 473 -482 847 -951
955 -105 24 -120 25 -260 29 -220 5 -407 -37 -606 -136 l-102 -52 -125 129
c-634 658 -576 599 -616 620 -36 20 -121 26 -164 13z"/>
<path d="M1716 1613 c-13 -7 -127 -116 -253 -242 -159 -160 -232 -240 -239
-263 -12 -38 -1 -94 24 -122 40 -44 113 -59 160 -33 12 7 101 91 197 186 l174
174 113 -99 c241 -211 269 -233 304 -240 67 -12 124 18 147 78 15 36 15 48 4
95 -6 23 -33 53 -98 108 -49 42 -95 82 -101 89 -67 64 -324 276 -337 277 -58
5 -73 4 -95 -8z"/>
</g>
</svg>
